<svg width="1132" height="453" viewBox="0 0 1132 453" fill="none" xmlns="http://www.w3.org/2000/svg">
<path d="M69.3278 215.401V150.997C69.3278 147.695 68.9707 145.329 68.2566 143.901C67.5425 142.473 66.0697 141.759 63.8381 141.759V137.608L91.2866 126.093L93.4289 130.378C91.4651 130.378 89.5906 131.538 87.8053 133.859C86.1986 136.09 85.3952 139.482 85.3952 144.035V207.367C85.3952 210.313 86.0201 212.857 87.2697 214.999C88.5194 217.142 90.0815 218.213 91.9561 218.213V221.159C91.3312 221.248 86.4664 223.97 77.3615 229.326C76.7366 229.148 75.9779 228.925 75.0853 228.657C74.1926 228.3 72.9876 227.407 71.4701 225.979C70.0419 224.551 69.3278 222.899 69.3278 221.025C68.7922 221.292 67.2747 222.14 64.7753 223.569C58.1698 227.318 54.2422 229.192 52.9925 229.192C50.1361 229.192 47.4582 227.362 44.9588 223.703C42.4594 219.954 41.2098 216.472 41.2098 213.259V145.909C41.2098 141 39.0228 138.099 34.6489 137.206V134.261L49.2435 126.093C51.2073 126.896 53.0372 128.235 54.7332 130.11C56.4292 131.895 57.2772 133.591 57.2772 135.198V200.806C57.2772 206.43 58.0806 210.268 59.6873 212.321C61.3833 214.375 64.5968 215.401 69.3278 215.401ZM100.082 220.221V174.831C100.082 171.885 99.457 169.341 98.2073 167.199C96.9576 165.056 95.3955 163.985 93.521 163.985V161.04C94.1458 160.95 99.0107 158.228 108.116 152.872C108.74 153.05 109.499 153.318 110.392 153.675C111.284 153.943 112.445 154.791 113.873 156.219C115.391 157.648 116.149 159.299 116.149 161.173C116.685 160.906 118.202 160.058 120.702 158.629C127.307 154.88 131.235 153.006 132.485 153.006C135.341 153.006 138.019 154.88 140.518 158.629C143.018 162.379 144.267 165.815 144.267 168.939V209.51C144.267 214.419 146.454 217.32 150.828 218.213V221.159L136.234 229.326C134.27 228.523 132.44 227.229 130.744 225.443C129.048 223.569 128.2 221.828 128.2 220.221V181.392C128.2 176.393 127.62 172.599 126.459 170.011C125.388 167.333 123.424 165.994 120.568 165.994L116.149 166.797V209.51C116.149 214.955 117.979 218.034 121.639 218.748V221.694L108.116 229.326C106.152 228.523 104.322 227.229 102.626 225.443C100.93 223.569 100.082 221.828 100.082 220.221ZM175.021 135.466V209.51C175.021 214.955 176.851 218.034 180.511 218.748V221.694L166.988 229.326C165.024 228.523 163.194 227.229 161.498 225.443C159.802 223.569 158.954 221.828 158.954 220.221V146.177C158.954 140.732 157.124 137.653 153.464 136.938V133.993L166.988 126.361C168.951 127.164 170.781 128.503 172.477 130.378C174.173 132.163 175.021 133.859 175.021 135.466ZM222.518 153.006C222.964 153.006 224.08 153.72 225.865 155.148C227.65 156.487 229.436 158.406 231.221 160.906C233.006 163.316 233.899 165.681 233.899 168.002V190.497C233.899 192.103 231.533 194.067 226.802 196.388C222.071 198.709 217.474 200.628 213.011 202.145C208.637 203.574 206.272 204.288 205.915 204.288C205.915 211.161 208.905 215.401 214.886 217.008C217.831 217.722 221.357 218.079 225.463 218.079V221.962C210.824 226.871 203.014 229.326 202.032 229.326C199.354 229.326 196.631 227.452 193.864 223.703C191.097 219.864 189.713 215.401 189.713 210.313V165.324C189.713 164.699 194.801 162.512 204.977 158.763C215.153 154.925 221 153.006 222.518 153.006ZM217.831 174.295C217.831 171.796 217.251 169.698 216.091 168.002C214.93 166.217 213.457 165.324 211.672 165.324C209.887 165.324 207.923 165.994 205.781 167.333V198.262C213.814 196.031 217.831 191.211 217.831 183.802V174.295ZM282.771 170.68V208.572C282.771 211.875 283.306 214.196 284.377 215.535C285.448 216.785 287.1 217.677 289.331 218.213V221.159L274.737 229.326C272.773 228.523 270.943 227.229 269.247 225.443C267.551 223.569 266.703 221.873 266.703 220.355L249.966 229.326C249.698 229.148 249.297 228.925 248.761 228.657C248.226 228.3 247.288 227.63 245.949 226.648C244.7 225.577 243.584 224.461 242.602 223.301C239.924 220.355 238.585 217.008 238.585 213.259V191.3C238.585 189.872 240.906 188.042 245.548 185.81C250.189 183.579 254.831 181.749 259.473 180.321L266.569 178.044C266.569 172.956 265.23 169.43 262.552 167.467C259.874 165.413 254.697 164.387 247.02 164.387V160.37C260.856 155.461 268.622 153.006 270.318 153.006C273.264 153.006 276.076 154.925 278.754 158.763C281.432 162.602 282.771 166.574 282.771 170.68ZM254.652 208.439C254.652 210.759 255.322 212.679 256.661 214.196C258.089 215.624 259.651 216.338 261.347 216.338C263.043 216.338 264.829 215.669 266.703 214.33V184.07C264.471 184.873 262.775 185.542 261.615 186.078C260.544 186.614 259.383 187.462 258.134 188.622C255.813 190.764 254.652 194.469 254.652 199.735V208.439ZM303.679 200.003C301.448 200.003 299.528 198.307 297.922 194.915C296.315 191.523 295.512 187.372 295.512 182.463V168.002C295.512 166.306 300.198 163.405 309.571 159.299C318.943 155.104 324.344 153.006 325.772 153.006C326.575 153.006 327.289 153.497 327.914 154.479C328.539 155.371 329.03 156.13 329.387 156.755C329.744 157.291 330.28 158.272 330.994 159.701C331.797 161.04 332.467 162.155 333.002 163.048C334.163 165.19 335.635 166.262 337.421 166.262V168.939C335.993 169.564 334.118 170.502 331.797 171.751C326.084 174.875 323.005 176.438 322.558 176.438C321.219 176.438 319.747 174.251 318.14 169.877C316.622 165.503 315.239 163.316 313.989 163.316C312.382 163.316 311.579 164.655 311.579 167.333V183.802C311.579 187.372 312.382 189.158 313.989 189.158C314.346 189.158 317.113 187.997 322.291 185.676C327.468 183.355 330.592 182.195 331.663 182.195C333.806 182.195 335.68 183.936 337.287 187.417C338.983 190.809 339.831 195.183 339.831 200.539V215.669C339.831 217.365 334.698 220.311 324.433 224.506C314.257 228.612 308.41 230.665 306.893 230.665C306.268 230.665 305.643 230.13 305.018 229.058C304.482 227.898 303.679 226.157 302.608 223.836C301.626 221.516 300.644 219.552 299.662 217.945C298.502 215.803 297.029 214.732 295.244 214.732V212.054C296.672 211.429 298.591 210.492 301.001 209.242C306.625 206.118 309.66 204.556 310.106 204.556C311.445 204.556 313.096 207.189 315.06 212.455C317.113 217.722 318.765 220.355 320.014 220.355C320.907 220.355 321.755 219.998 322.558 219.284C323.362 218.57 323.763 217.588 323.763 216.338V199.601C323.763 195.585 322.648 193.576 320.416 193.576C319.702 193.576 316.89 194.647 311.981 196.79C307.071 198.932 304.304 200.003 303.679 200.003ZM353.123 220.221V153.943C353.123 151.533 352.721 149.837 351.918 148.855C351.115 147.784 349.731 147.248 347.767 147.248V143.499C359.372 137.429 369.726 131.717 378.831 126.361L380.973 130.645C380.081 131.092 378.831 131.984 377.224 133.323C375.617 134.573 374.279 135.867 373.207 137.206C370.529 140.598 369.191 144.437 369.191 148.721V160.102C378.385 155.371 383.74 153.006 385.258 153.006C388.114 153.006 390.837 154.791 393.426 158.362C396.014 161.932 397.309 165.86 397.309 170.144V209.51C397.309 214.419 399.495 217.32 403.869 218.213V221.159L389.275 229.326C387.311 228.523 385.481 227.229 383.785 225.443C382.089 223.569 381.241 221.828 381.241 220.221V181.392C381.241 172.644 379.634 167.69 376.421 166.529C374.903 165.994 372.493 165.726 369.191 165.726V209.51C369.191 214.955 371.02 218.034 374.68 218.748V221.694L361.157 229.326C359.193 228.523 357.363 227.229 355.667 225.443C353.971 223.569 353.123 221.828 353.123 220.221ZM483.151 161.977V215.133C483.151 218.525 481.634 223.346 478.599 229.594C475.564 235.932 472.35 241.466 468.958 246.197C465.566 251.017 463.245 253.427 461.996 253.427C459.764 253.427 456.774 252.758 453.025 251.419C449.276 250.08 446.062 248.741 443.384 247.402L439.501 245.394V241.377H444.054C447.535 241.377 451.507 239.368 455.97 235.351C460.434 231.424 464.138 226.157 467.084 219.552C456.997 224.283 451.195 226.648 449.677 226.648C446.91 226.648 444.411 224.908 442.179 221.426C440.037 217.856 438.966 213.884 438.966 209.51V172.688C438.966 167.779 436.779 164.878 432.405 163.985V161.04L446.999 152.872C448.963 153.675 450.793 155.014 452.489 156.889C454.185 158.674 455.033 160.37 455.033 161.977V198.262C455.033 204.511 456.015 208.706 457.979 210.849C459.943 212.902 462.978 213.928 467.084 213.928V172.688C467.084 167.243 465.254 164.164 461.594 163.45V160.504L475.117 152.872C477.081 153.675 478.911 155.014 480.607 156.889C482.303 158.674 483.151 160.37 483.151 161.977ZM497.835 209.777V165.324C497.835 164.699 502.923 162.512 513.099 158.763C523.275 154.925 529.122 153.006 530.639 153.006C532.156 153.006 534.433 154.836 537.468 158.496C540.592 162.155 542.154 165.458 542.154 168.404V216.874C542.154 217.588 537.245 219.864 527.426 223.703C517.696 227.452 511.715 229.326 509.484 229.326C507.341 229.326 504.842 227.407 501.985 223.569C499.218 219.73 497.835 215.133 497.835 209.777ZM520.731 217.008C522.427 217.008 524.167 216.294 525.953 214.866V175.366C525.953 168.761 523.676 165.458 519.124 165.458C517.339 165.458 515.598 166.128 513.902 167.467V207.1C513.902 213.705 516.178 217.008 520.731 217.008ZM572.905 208.439C572.905 210.759 573.574 212.679 574.913 214.196C576.342 215.624 577.904 216.338 579.6 216.338C581.296 216.338 583.081 215.669 584.956 214.33V172.688C584.956 167.243 583.126 164.164 579.466 163.45V160.504L592.989 152.872C594.953 153.675 596.783 155.014 598.479 156.889C600.175 158.674 601.023 160.37 601.023 161.977V207.367C601.023 210.313 601.648 212.857 602.897 214.999C604.147 217.142 605.709 218.213 607.584 218.213V221.159C606.959 221.248 602.094 223.97 592.989 229.326C590.936 228.434 589.062 227.139 587.366 225.443C585.759 223.658 584.956 221.962 584.956 220.355L568.219 229.326C567.951 229.148 567.549 228.925 567.014 228.657C566.478 228.3 565.541 227.63 564.202 226.648C562.952 225.577 561.836 224.461 560.854 223.301C558.176 220.355 556.837 217.008 556.837 213.259V172.688C556.837 167.779 554.651 164.878 550.277 163.985V161.04L564.871 152.872C566.835 153.675 568.665 155.014 570.361 156.889C572.057 158.674 572.905 160.37 572.905 161.977V208.439ZM609.149 161.04L623.877 153.006C624.502 153.184 625.216 153.452 626.02 153.809C626.912 154.077 628.073 154.925 629.501 156.353C631.018 157.781 631.777 159.388 631.777 161.173C632.223 160.995 634.321 159.611 638.07 157.023C641.908 154.345 644.363 153.006 645.434 153.006C648.291 153.006 650.969 154.88 653.468 158.629C655.967 162.379 657.217 165.815 657.217 168.939V175.5L643.426 183.266L641.15 181.392C641.15 173.894 640.436 169.609 639.007 168.538C637.401 167.377 634.991 166.797 631.777 166.797V209.51C631.777 214.955 633.607 218.034 637.267 218.748V221.694L623.743 229.326C621.78 228.523 619.95 227.229 618.254 225.443C616.558 223.569 615.71 221.828 615.71 220.221V175.768C615.71 171.84 614.996 168.895 613.567 166.931C612.228 164.967 610.756 163.985 609.149 163.985V161.04ZM716.173 165.458C714.477 165.458 712.736 166.172 710.951 167.6V220.757C713.272 220.757 715.86 219.998 718.717 218.481C721.573 216.963 723.002 215.356 723.002 213.66V175.366C723.002 168.761 720.725 165.458 716.173 165.458ZM694.75 244.055V173.626C694.75 171.573 694.169 169.564 693.009 167.6C691.938 165.637 690.376 164.521 688.323 164.253V161.307C688.948 161.218 693.812 158.496 702.917 153.14C704.97 154.032 706.8 155.371 708.407 157.157C710.103 158.853 710.951 160.459 710.951 161.977C720.502 156.085 726.081 153.14 727.688 153.14C728.313 153.14 729.473 153.854 731.169 155.282C732.954 156.621 734.695 158.629 736.391 161.307C738.176 163.896 739.069 166.574 739.069 169.341V217.008C739.069 217.633 735.097 219.507 727.152 222.631C719.297 225.666 713.852 227.586 710.817 228.389V233.343C710.817 238.788 712.647 241.868 716.307 242.582V245.528L702.783 253.16C700.82 252.356 698.99 251.017 697.294 249.143C695.598 247.357 694.75 245.661 694.75 244.055ZM753.622 209.777V165.324C753.622 164.699 758.71 162.512 768.886 158.763C779.062 154.925 784.909 153.006 786.426 153.006C787.944 153.006 790.22 154.836 793.255 158.496C796.379 162.155 797.941 165.458 797.941 168.404V216.874C797.941 217.588 793.032 219.864 783.213 223.703C773.483 227.452 767.502 229.326 765.271 229.326C763.128 229.326 760.629 227.407 757.773 223.569C755.005 219.73 753.622 215.133 753.622 209.777ZM776.518 217.008C778.214 217.008 779.955 216.294 781.74 214.866V175.366C781.74 168.761 779.464 165.458 774.911 165.458C773.126 165.458 771.385 166.128 769.689 167.467V207.1C769.689 213.705 771.965 217.008 776.518 217.008ZM828.692 139.081V155.014H835.521L834.182 161.575H828.692V209.51C828.692 214.955 830.522 218.034 834.182 218.748V221.694L820.658 229.326C818.695 228.523 816.865 227.229 815.169 225.443C813.473 223.569 812.625 221.828 812.625 220.221V161.709H807.135L808.474 156.085C811.152 156.085 814.365 154.3 818.114 150.73C821.953 147.07 824.229 143.187 824.943 139.081H828.692ZM876.188 153.006C876.635 153.006 877.75 153.72 879.536 155.148C881.321 156.487 883.106 158.406 884.891 160.906C886.677 163.316 887.569 165.681 887.569 168.002V190.497C887.569 192.103 885.204 194.067 880.473 196.388C875.742 198.709 871.145 200.628 866.682 202.145C862.308 203.574 859.942 204.288 859.585 204.288C859.585 211.161 862.576 215.401 868.556 217.008C871.502 217.722 875.028 218.079 879.134 218.079V221.962C864.495 226.871 856.684 229.326 855.702 229.326C853.024 229.326 850.302 227.452 847.535 223.703C844.768 219.864 843.384 215.401 843.384 210.313V165.324C843.384 164.699 848.472 162.512 858.648 158.763C868.824 154.925 874.671 153.006 876.188 153.006ZM871.502 174.295C871.502 171.796 870.922 169.698 869.761 168.002C868.601 166.217 867.128 165.324 865.343 165.324C863.558 165.324 861.594 165.994 859.451 167.333V198.262C867.485 196.031 871.502 191.211 871.502 183.802V174.295ZM901.602 220.221V174.831C901.602 171.885 900.977 169.341 899.728 167.199C898.478 165.056 896.916 163.985 895.041 163.985V161.04C895.666 160.95 900.531 158.228 909.636 152.872C910.261 153.05 911.02 153.318 911.912 153.675C912.805 153.943 913.965 154.791 915.393 156.219C916.911 157.648 917.67 159.299 917.67 161.173C918.205 160.906 919.723 160.058 922.222 158.629C928.828 154.88 932.755 153.006 934.005 153.006C936.861 153.006 939.539 154.88 942.039 158.629C944.538 162.379 945.788 165.815 945.788 168.939V209.51C945.788 214.419 947.975 217.32 952.349 218.213V221.159L937.754 229.326C935.79 228.523 933.96 227.229 932.264 225.443C930.568 223.569 929.72 221.828 929.72 220.221V181.392C929.72 176.393 929.14 172.599 927.98 170.011C926.908 167.333 924.945 165.994 922.088 165.994L917.67 166.797V209.51C917.67 214.955 919.5 218.034 923.159 218.748V221.694L909.636 229.326C907.672 228.523 905.842 227.229 904.146 225.443C902.45 223.569 901.602 221.828 901.602 220.221ZM976.542 139.081V155.014H983.371L982.032 161.575H976.542V209.51C976.542 214.955 978.372 218.034 982.032 218.748V221.694L968.508 229.326C966.544 228.523 964.714 227.229 963.018 225.443C961.322 223.569 960.474 221.828 960.474 220.221V161.709H954.985L956.324 156.085C959.002 156.085 962.215 154.3 965.964 150.73C969.802 147.07 972.079 143.187 972.793 139.081H976.542ZM1007.3 162.111V209.51C1007.3 214.955 1009.13 218.034 1012.79 218.748V221.694L999.267 229.326C997.304 228.523 995.474 227.229 993.778 225.443C992.082 223.569 991.234 221.828 991.234 220.221V172.822C991.234 167.377 989.404 164.298 985.744 163.584V160.638L999.267 153.006C1001.23 153.809 1003.06 155.148 1004.76 157.023C1006.45 158.808 1007.3 160.504 1007.3 162.111ZM989.225 136.269V128.101C989.225 127.834 991.055 127.03 994.715 125.691C998.464 124.263 1000.61 123.549 1001.14 123.549C1001.77 123.549 1002.61 124.308 1003.69 125.825C1004.85 127.343 1005.43 128.905 1005.43 130.511V140.286C1005.43 140.554 1003.64 141.402 1000.07 142.83C996.5 144.169 994.313 144.838 993.51 144.838C992.707 144.838 991.769 144.08 990.698 142.562C989.716 140.955 989.225 138.858 989.225 136.269ZM1063.5 170.68V208.572C1063.5 211.875 1064.04 214.196 1065.11 215.535C1066.18 216.785 1067.83 217.677 1070.06 218.213V221.159L1055.47 229.326C1053.5 228.523 1051.67 227.229 1049.98 225.443C1048.28 223.569 1047.43 221.873 1047.43 220.355L1030.7 229.326C1030.43 229.148 1030.03 228.925 1029.49 228.657C1028.96 228.3 1028.02 227.63 1026.68 226.648C1025.43 225.577 1024.31 224.461 1023.33 223.301C1020.65 220.355 1019.32 217.008 1019.32 213.259V191.3C1019.32 189.872 1021.64 188.042 1026.28 185.81C1030.92 183.579 1035.56 181.749 1040.2 180.321L1047.3 178.044C1047.3 172.956 1045.96 169.43 1043.28 167.467C1040.6 165.413 1035.43 164.387 1027.75 164.387V160.37C1041.59 155.461 1049.35 153.006 1051.05 153.006C1053.99 153.006 1056.81 154.925 1059.48 158.763C1062.16 162.602 1063.5 166.574 1063.5 170.68ZM1035.38 208.439C1035.38 210.759 1036.05 212.679 1037.39 214.196C1038.82 215.624 1040.38 216.338 1042.08 216.338C1043.77 216.338 1045.56 215.669 1047.43 214.33V184.07C1045.2 184.873 1043.51 185.542 1042.35 186.078C1041.27 186.614 1040.11 187.462 1038.86 188.622C1036.54 190.764 1035.38 194.469 1035.38 199.735V208.439ZM1094.32 135.466V209.51C1094.32 214.955 1096.15 218.034 1099.81 218.748V221.694L1086.28 229.326C1084.32 228.523 1082.49 227.229 1080.79 225.443C1079.1 223.569 1078.25 221.828 1078.25 220.221V146.177C1078.25 140.732 1076.42 137.653 1072.76 136.938V133.993L1086.28 126.361C1088.25 127.164 1090.08 128.503 1091.77 130.378C1093.47 132.163 1094.32 133.859 1094.32 135.466Z" fill="white"/>
<path d="M1083 239.648L437.816 0.896578L519.272 268.537L53.0002 211.607L701.093 451.813L619.637 181.263L1083 239.648Z" stroke="white"/>
<path d="M434.755 299.826V280.386H439.579C440.747 280.386 441.675 280.602 442.363 281.034C443.067 281.45 443.579 282.058 443.899 282.858C444.219 283.658 444.379 284.626 444.379 285.762C444.379 286.786 444.195 287.674 443.827 288.426C443.475 289.178 442.947 289.762 442.243 290.178C441.539 290.578 440.659 290.778 439.603 290.778H437.467V299.826H434.755ZM437.467 288.834H438.715C439.499 288.834 440.115 288.746 440.563 288.57C441.011 288.394 441.331 288.09 441.523 287.658C441.715 287.21 441.811 286.586 441.811 285.786C441.811 284.858 441.739 284.146 441.595 283.65C441.467 283.154 441.187 282.81 440.755 282.618C440.323 282.426 439.651 282.33 438.739 282.33H437.467V288.834ZM448.302 300.018C447.758 300.018 447.334 299.874 447.03 299.586C446.726 299.298 446.51 298.938 446.382 298.506C446.27 298.074 446.214 297.634 446.214 297.186V285.954H448.782V296.418C448.782 296.914 448.854 297.306 448.998 297.594C449.142 297.866 449.438 298.002 449.886 298.002C450.174 298.002 450.47 297.922 450.774 297.762C451.094 297.586 451.398 297.378 451.686 297.138V285.954H454.254V299.826H451.686V298.458C451.238 298.89 450.726 299.258 450.15 299.562C449.59 299.866 448.974 300.018 448.302 300.018ZM460.336 300.018C459.2 300.018 458.288 299.666 457.6 298.962C456.912 298.242 456.52 297.298 456.424 296.13L458.56 295.482C458.688 296.362 458.904 297.026 459.208 297.474C459.512 297.906 459.96 298.122 460.552 298.122C461.016 298.122 461.368 297.994 461.608 297.738C461.848 297.466 461.968 297.106 461.968 296.658C461.968 296.258 461.88 295.898 461.704 295.578C461.528 295.258 461.24 294.93 460.84 294.594L458.464 292.554C457.984 292.138 457.576 291.674 457.24 291.162C456.92 290.65 456.76 289.986 456.76 289.17C456.76 288.434 456.904 287.818 457.192 287.322C457.496 286.81 457.912 286.426 458.44 286.17C458.984 285.898 459.616 285.762 460.336 285.762C461.44 285.762 462.28 286.122 462.856 286.842C463.448 287.546 463.784 288.402 463.864 289.41L462.136 290.058C462.072 289.578 461.976 289.162 461.848 288.81C461.72 288.442 461.544 288.162 461.32 287.97C461.096 287.762 460.8 287.658 460.432 287.658C460.016 287.658 459.68 287.802 459.424 288.09C459.184 288.362 459.064 288.69 459.064 289.074C459.064 289.314 459.112 289.554 459.208 289.794C459.32 290.018 459.504 290.242 459.76 290.466L462.208 292.722C462.544 293.026 462.856 293.354 463.144 293.706C463.448 294.058 463.696 294.458 463.888 294.906C464.08 295.354 464.176 295.874 464.176 296.466C464.176 297.25 464.016 297.906 463.696 298.434C463.376 298.962 462.928 299.362 462.352 299.634C461.776 299.89 461.104 300.018 460.336 300.018ZM466.409 299.826V280.386H468.977V287.394C469.441 286.946 469.961 286.562 470.537 286.242C471.113 285.922 471.753 285.762 472.457 285.762C473.001 285.762 473.417 285.906 473.705 286.194C474.009 286.482 474.217 286.842 474.329 287.274C474.457 287.706 474.521 288.146 474.521 288.594V299.826H471.953V289.338C471.953 288.842 471.881 288.458 471.737 288.186C471.593 287.914 471.297 287.778 470.849 287.778C470.545 287.778 470.225 287.866 469.889 288.042C469.569 288.218 469.265 288.434 468.977 288.69V299.826H466.409ZM482.773 303.306V301.338C483.397 301.338 483.893 301.306 484.261 301.242C484.629 301.194 484.893 301.09 485.053 300.93C485.213 300.786 485.293 300.578 485.293 300.306C485.293 300.162 485.237 299.842 485.125 299.346C485.013 298.85 484.893 298.322 484.765 297.762L481.981 285.954H484.573L486.445 296.322L488.245 285.954H490.837L487.525 300.594C487.381 301.266 487.117 301.794 486.733 302.178C486.349 302.578 485.853 302.866 485.245 303.042C484.653 303.218 483.933 303.306 483.085 303.306H482.773ZM496.443 300.018C495.419 300.018 494.611 299.81 494.019 299.394C493.427 298.978 493.003 298.386 492.747 297.618C492.507 296.85 492.387 295.946 492.387 294.906V290.874C492.387 289.834 492.507 288.93 492.747 288.162C493.003 287.394 493.427 286.802 494.019 286.386C494.611 285.97 495.419 285.762 496.443 285.762C497.467 285.762 498.267 285.97 498.843 286.386C499.435 286.802 499.851 287.394 500.091 288.162C500.347 288.93 500.475 289.834 500.475 290.874V294.906C500.475 295.946 500.347 296.85 500.091 297.618C499.851 298.386 499.435 298.978 498.843 299.394C498.267 299.81 497.467 300.018 496.443 300.018ZM496.443 298.122C496.939 298.122 497.283 297.978 497.475 297.69C497.683 297.402 497.803 297.026 497.835 296.562C497.883 296.082 497.907 295.586 497.907 295.074V290.73C497.907 290.202 497.883 289.706 497.835 289.242C497.803 288.778 497.683 288.402 497.475 288.114C497.283 287.81 496.939 287.658 496.443 287.658C495.947 287.658 495.595 287.81 495.387 288.114C495.179 288.402 495.051 288.778 495.003 289.242C494.971 289.706 494.955 290.202 494.955 290.73V295.074C494.955 295.586 494.971 296.082 495.003 296.562C495.051 297.026 495.179 297.402 495.387 297.69C495.595 297.978 495.947 298.122 496.443 298.122ZM505.055 300.018C504.511 300.018 504.087 299.874 503.783 299.586C503.479 299.298 503.263 298.938 503.135 298.506C503.023 298.074 502.967 297.634 502.967 297.186V285.954H505.535V296.418C505.535 296.914 505.607 297.306 505.751 297.594C505.895 297.866 506.191 298.002 506.639 298.002C506.927 298.002 507.223 297.922 507.527 297.762C507.847 297.586 508.151 297.378 508.439 297.138V285.954H511.007V299.826H508.439V298.458C507.991 298.89 507.479 299.258 506.903 299.562C506.343 299.866 505.727 300.018 505.055 300.018ZM513.945 299.826V285.954H516.513V287.922C517.025 287.074 517.537 286.506 518.049 286.218C518.561 285.93 519.073 285.786 519.585 285.786C519.649 285.786 519.705 285.786 519.753 285.786C519.817 285.786 519.897 285.794 519.993 285.81V288.642C519.801 288.562 519.577 288.498 519.321 288.45C519.081 288.386 518.833 288.354 518.577 288.354C518.177 288.354 517.809 288.45 517.473 288.642C517.153 288.818 516.833 289.17 516.513 289.698V299.826H513.945ZM525.04 300.018C523.904 300.018 522.992 299.666 522.304 298.962C521.616 298.242 521.224 297.298 521.128 296.13L523.264 295.482C523.392 296.362 523.608 297.026 523.912 297.474C524.216 297.906 524.664 298.122 525.256 298.122C525.72 298.122 526.072 297.994 526.312 297.738C526.552 297.466 526.672 297.106 526.672 296.658C526.672 296.258 526.584 295.898 526.408 295.578C526.232 295.258 525.944 294.93 525.544 294.594L523.168 292.554C522.688 292.138 522.28 291.674 521.944 291.162C521.624 290.65 521.464 289.986 521.464 289.17C521.464 288.434 521.608 287.818 521.896 287.322C522.2 286.81 522.616 286.426 523.144 286.17C523.688 285.898 524.32 285.762 525.04 285.762C526.144 285.762 526.984 286.122 527.56 286.842C528.152 287.546 528.488 288.402 528.568 289.41L526.84 290.058C526.776 289.578 526.68 289.162 526.552 288.81C526.424 288.442 526.248 288.162 526.024 287.97C525.8 287.762 525.504 287.658 525.136 287.658C524.72 287.658 524.384 287.802 524.128 288.09C523.888 288.362 523.768 288.69 523.768 289.074C523.768 289.314 523.816 289.554 523.912 289.794C524.024 290.018 524.208 290.242 524.464 290.466L526.912 292.722C527.248 293.026 527.56 293.354 527.848 293.706C528.152 294.058 528.4 294.458 528.592 294.906C528.784 295.354 528.88 295.874 528.88 296.466C528.88 297.25 528.72 297.906 528.4 298.434C528.08 298.962 527.632 299.362 527.056 299.634C526.48 299.89 525.808 300.018 525.04 300.018ZM534.88 300.018C533.792 300.018 532.952 299.81 532.36 299.394C531.768 298.962 531.352 298.338 531.112 297.522C530.888 296.69 530.776 295.674 530.776 294.474V291.306C530.776 290.074 530.896 289.05 531.136 288.234C531.376 287.418 531.792 286.802 532.384 286.386C532.992 285.97 533.824 285.762 534.88 285.762C536.048 285.762 536.904 286.002 537.448 286.482C538.008 286.962 538.376 287.658 538.552 288.57C538.728 289.466 538.816 290.546 538.816 291.81V292.938H533.344V295.722C533.344 296.282 533.392 296.738 533.488 297.09C533.6 297.442 533.768 297.706 533.992 297.882C534.232 298.042 534.536 298.122 534.904 298.122C535.288 298.122 535.576 298.034 535.768 297.858C535.976 297.666 536.112 297.402 536.176 297.066C536.256 296.714 536.296 296.306 536.296 295.842V295.002H538.792V295.53C538.792 296.922 538.496 298.018 537.904 298.818C537.312 299.618 536.304 300.018 534.88 300.018ZM533.344 291.546H536.296V290.298C536.296 289.722 536.264 289.242 536.2 288.858C536.136 288.458 536 288.162 535.792 287.97C535.6 287.762 535.288 287.658 534.856 287.658C534.44 287.658 534.12 287.754 533.896 287.946C533.688 288.138 533.544 288.466 533.464 288.93C533.384 289.378 533.344 290.002 533.344 290.802V291.546ZM541.622 299.826V280.386H544.19V299.826H541.622ZM547.922 299.826V287.85H546.266V285.954H547.922V285.234C547.922 284.37 547.986 283.634 548.114 283.026C548.258 282.402 548.546 281.922 548.978 281.586C549.41 281.25 550.058 281.082 550.922 281.082C551.242 281.082 551.522 281.098 551.762 281.13C552.018 281.146 552.298 281.186 552.602 281.25V283.122C552.458 283.09 552.298 283.066 552.122 283.05C551.946 283.018 551.786 283.002 551.642 283.002C551.146 283.002 550.826 283.17 550.682 283.506C550.554 283.826 550.49 284.258 550.49 284.802V285.954H552.602V287.85H550.49V299.826H547.922ZM563.657 300.018C562.937 300.018 562.353 299.882 561.905 299.61C561.473 299.338 561.153 298.954 560.945 298.458C560.753 297.962 560.657 297.378 560.657 296.706V287.658H559.193V285.954H560.657V281.898H563.225V285.954H565.457V287.658H563.225V296.538C563.225 297.082 563.313 297.474 563.489 297.714C563.665 297.938 564.001 298.05 564.497 298.05C564.625 298.05 564.769 298.042 564.929 298.026C565.105 298.01 565.273 297.994 565.433 297.978V299.874C565.113 299.922 564.817 299.954 564.545 299.97C564.273 300.002 563.977 300.018 563.657 300.018ZM571.4 300.018C570.376 300.018 569.568 299.81 568.976 299.394C568.384 298.978 567.96 298.386 567.704 297.618C567.464 296.85 567.344 295.946 567.344 294.906V290.874C567.344 289.834 567.464 288.93 567.704 288.162C567.96 287.394 568.384 286.802 568.976 286.386C569.568 285.97 570.376 285.762 571.4 285.762C572.424 285.762 573.224 285.97 573.8 286.386C574.392 286.802 574.808 287.394 575.048 288.162C575.304 288.93 575.432 289.834 575.432 290.874V294.906C575.432 295.946 575.304 296.85 575.048 297.618C574.808 298.386 574.392 298.978 573.8 299.394C573.224 299.81 572.424 300.018 571.4 300.018ZM571.4 298.122C571.896 298.122 572.24 297.978 572.432 297.69C572.64 297.402 572.76 297.026 572.792 296.562C572.84 296.082 572.864 295.586 572.864 295.074V290.73C572.864 290.202 572.84 289.706 572.792 289.242C572.76 288.778 572.64 288.402 572.432 288.114C572.24 287.81 571.896 287.658 571.4 287.658C570.904 287.658 570.552 287.81 570.344 288.114C570.136 288.402 570.008 288.778 569.96 289.242C569.928 289.706 569.912 290.202 569.912 290.73V295.074C569.912 295.586 569.928 296.082 569.96 296.562C570.008 297.026 570.136 297.402 570.344 297.69C570.552 297.978 570.904 298.122 571.4 298.122ZM587.44 300.018C586.72 300.018 586.136 299.882 585.688 299.61C585.256 299.338 584.936 298.954 584.728 298.458C584.536 297.962 584.44 297.378 584.44 296.706V287.658H582.976V285.954H584.44V281.898H587.008V285.954H589.24V287.658H587.008V296.538C587.008 297.082 587.096 297.474 587.272 297.714C587.448 297.938 587.784 298.05 588.28 298.05C588.408 298.05 588.552 298.042 588.712 298.026C588.888 298.01 589.056 297.994 589.216 297.978V299.874C588.896 299.922 588.6 299.954 588.328 299.97C588.056 300.002 587.76 300.018 587.44 300.018ZM591.439 299.826V280.386H594.007V287.394C594.471 286.946 594.991 286.562 595.567 286.242C596.143 285.922 596.783 285.762 597.487 285.762C598.031 285.762 598.447 285.906 598.735 286.194C599.039 286.482 599.247 286.842 599.359 287.274C599.487 287.706 599.551 288.146 599.551 288.594V299.826H596.983V289.338C596.983 288.842 596.911 288.458 596.767 288.186C596.623 287.914 596.327 287.778 595.879 287.778C595.575 287.778 595.255 287.866 594.919 288.042C594.599 288.218 594.295 288.434 594.007 288.69V299.826H591.439ZM606.134 300.018C605.046 300.018 604.206 299.81 603.614 299.394C603.022 298.962 602.606 298.338 602.366 297.522C602.142 296.69 602.03 295.674 602.03 294.474V291.306C602.03 290.074 602.15 289.05 602.39 288.234C602.63 287.418 603.046 286.802 603.638 286.386C604.246 285.97 605.078 285.762 606.134 285.762C607.302 285.762 608.158 286.002 608.702 286.482C609.262 286.962 609.63 287.658 609.806 288.57C609.982 289.466 610.07 290.546 610.07 291.81V292.938H604.598V295.722C604.598 296.282 604.646 296.738 604.742 297.09C604.854 297.442 605.022 297.706 605.246 297.882C605.486 298.042 605.79 298.122 606.158 298.122C606.542 298.122 606.83 298.034 607.022 297.858C607.23 297.666 607.366 297.402 607.43 297.066C607.51 296.714 607.55 296.306 607.55 295.842V295.002H610.046V295.53C610.046 296.922 609.75 298.018 609.158 298.818C608.566 299.618 607.558 300.018 606.134 300.018ZM604.598 291.546H607.55V290.298C607.55 289.722 607.518 289.242 607.454 288.858C607.39 288.458 607.254 288.162 607.046 287.97C606.854 287.762 606.542 287.658 606.11 287.658C605.694 287.658 605.374 287.754 605.15 287.946C604.942 288.138 604.798 288.466 604.718 288.93C604.638 289.378 604.598 290.002 604.598 290.802V291.546ZM618.6 299.826V280.386H621.168V299.826H618.6ZM624.253 299.826V285.954H626.821V299.826H624.253ZM624.253 283.89V281.202H626.821V283.89H624.253ZM629.809 299.826V285.954H632.185V287.274C632.649 286.746 633.161 286.354 633.721 286.098C634.281 285.842 634.857 285.714 635.449 285.714C635.961 285.714 636.417 285.842 636.817 286.098C637.233 286.354 637.529 286.81 637.705 287.466C638.201 286.858 638.737 286.418 639.313 286.146C639.905 285.858 640.521 285.714 641.161 285.714C641.609 285.714 642.017 285.826 642.385 286.05C642.753 286.258 643.049 286.602 643.273 287.082C643.497 287.546 643.609 288.162 643.609 288.93V299.826H641.257V289.098C641.257 288.426 641.145 287.978 640.921 287.754C640.713 287.514 640.425 287.394 640.057 287.394C639.705 287.394 639.337 287.498 638.953 287.706C638.569 287.898 638.217 288.17 637.897 288.522C637.897 288.586 637.897 288.65 637.897 288.714C637.897 288.778 637.897 288.85 637.897 288.93V299.826H635.545V289.098C635.545 288.426 635.433 287.978 635.209 287.754C635.001 287.514 634.713 287.394 634.345 287.394C633.993 287.394 633.625 287.498 633.241 287.706C632.873 287.898 632.521 288.17 632.185 288.522V299.826H629.809ZM646.529 299.826V285.954H649.097V299.826H646.529ZM646.529 283.89V281.202H649.097V283.89H646.529ZM655.782 300.018C655.062 300.018 654.478 299.882 654.03 299.61C653.598 299.338 653.278 298.954 653.07 298.458C652.878 297.962 652.782 297.378 652.782 296.706V287.658H651.318V285.954H652.782V281.898H655.35V285.954H657.582V287.658H655.35V296.538C655.35 297.082 655.438 297.474 655.614 297.714C655.79 297.938 656.126 298.05 656.622 298.05C656.75 298.05 656.894 298.042 657.054 298.026C657.23 298.01 657.398 297.994 657.558 297.978V299.874C657.238 299.922 656.942 299.954 656.67 299.97C656.398 300.002 656.102 300.018 655.782 300.018ZM667.041 299.826L664.809 285.954H666.921L668.361 296.178L670.209 285.954H672.177L674.025 296.13L675.465 285.954H677.577L675.273 299.826H673.113L671.217 290.034L669.345 299.826H667.041ZM679.95 299.826V285.954H682.518V299.826H679.95ZM679.95 283.89V281.202H682.518V283.89H679.95ZM689.203 300.018C688.483 300.018 687.899 299.882 687.451 299.61C687.019 299.338 686.699 298.954 686.491 298.458C686.299 297.962 686.203 297.378 686.203 296.706V287.658H684.739V285.954H686.203V281.898H688.771V285.954H691.003V287.658H688.771V296.538C688.771 297.082 688.859 297.474 689.035 297.714C689.211 297.938 689.547 298.05 690.043 298.05C690.171 298.05 690.315 298.042 690.475 298.026C690.651 298.01 690.819 297.994 690.979 297.978V299.874C690.659 299.922 690.363 299.954 690.091 299.97C689.819 300.002 689.523 300.018 689.203 300.018ZM693.202 299.826V280.386H695.77V287.394C696.234 286.946 696.754 286.562 697.33 286.242C697.906 285.922 698.546 285.762 699.25 285.762C699.794 285.762 700.21 285.906 700.498 286.194C700.802 286.482 701.01 286.842 701.122 287.274C701.25 287.706 701.314 288.146 701.314 288.594V299.826H698.746V289.338C698.746 288.842 698.674 288.458 698.53 288.186C698.386 287.914 698.09 287.778 697.642 287.778C697.338 287.778 697.018 287.866 696.682 288.042C696.362 288.218 696.058 288.434 695.77 288.69V299.826H693.202ZM454.404 331.282V329.338C454.996 329.338 455.476 329.298 455.844 329.218C456.212 329.138 456.492 328.994 456.684 328.786C456.892 328.578 457.036 328.282 457.116 327.898C457.196 327.498 457.236 326.994 457.236 326.386V311.386H459.924V326.434C459.924 327.554 459.804 328.474 459.564 329.194C459.324 329.898 458.9 330.426 458.292 330.778C457.684 331.114 456.82 331.282 455.7 331.282H454.404ZM466.831 331.018C465.743 331.018 464.903 330.81 464.311 330.394C463.719 329.962 463.303 329.338 463.063 328.522C462.839 327.69 462.727 326.674 462.727 325.474V322.306C462.727 321.074 462.847 320.05 463.087 319.234C463.327 318.418 463.743 317.802 464.335 317.386C464.943 316.97 465.775 316.762 466.831 316.762C467.999 316.762 468.855 317.002 469.399 317.482C469.959 317.962 470.327 318.658 470.503 319.57C470.679 320.466 470.767 321.546 470.767 322.81V323.938H465.295V326.722C465.295 327.282 465.343 327.738 465.439 328.09C465.551 328.442 465.719 328.706 465.943 328.882C466.183 329.042 466.487 329.122 466.855 329.122C467.239 329.122 467.527 329.034 467.719 328.858C467.927 328.666 468.063 328.402 468.127 328.066C468.207 327.714 468.247 327.306 468.247 326.842V326.002H470.743V326.53C470.743 327.922 470.447 329.018 469.855 329.818C469.263 330.618 468.255 331.018 466.831 331.018ZM465.295 322.546H468.247V321.298C468.247 320.722 468.215 320.242 468.151 319.858C468.087 319.458 467.951 319.162 467.743 318.97C467.551 318.762 467.239 318.658 466.807 318.658C466.391 318.658 466.071 318.754 465.847 318.946C465.639 319.138 465.495 319.466 465.415 319.93C465.335 320.378 465.295 321.002 465.295 321.802V322.546ZM476.549 331.018C475.413 331.018 474.501 330.666 473.813 329.962C473.125 329.242 472.733 328.298 472.637 327.13L474.773 326.482C474.901 327.362 475.117 328.026 475.421 328.474C475.725 328.906 476.173 329.122 476.765 329.122C477.229 329.122 477.581 328.994 477.821 328.738C478.061 328.466 478.181 328.106 478.181 327.658C478.181 327.258 478.093 326.898 477.917 326.578C477.741 326.258 477.453 325.93 477.053 325.594L474.677 323.554C474.197 323.138 473.789 322.674 473.453 322.162C473.133 321.65 472.973 320.986 472.973 320.17C472.973 319.434 473.117 318.818 473.405 318.322C473.709 317.81 474.125 317.426 474.653 317.17C475.197 316.898 475.829 316.762 476.549 316.762C477.653 316.762 478.493 317.122 479.069 317.842C479.661 318.546 479.997 319.402 480.077 320.41L478.349 321.058C478.285 320.578 478.189 320.162 478.061 319.81C477.933 319.442 477.757 319.162 477.533 318.97C477.309 318.762 477.013 318.658 476.645 318.658C476.229 318.658 475.893 318.802 475.637 319.09C475.397 319.362 475.277 319.69 475.277 320.074C475.277 320.314 475.325 320.554 475.421 320.794C475.533 321.018 475.717 321.242 475.973 321.466L478.421 323.722C478.757 324.026 479.069 324.354 479.357 324.706C479.661 325.058 479.909 325.458 480.101 325.906C480.293 326.354 480.389 326.874 480.389 327.466C480.389 328.25 480.229 328.906 479.909 329.434C479.589 329.962 479.141 330.362 478.565 330.634C477.989 330.89 477.317 331.018 476.549 331.018ZM485.765 331.018C484.629 331.018 483.717 330.666 483.029 329.962C482.341 329.242 481.949 328.298 481.853 327.13L483.989 326.482C484.117 327.362 484.333 328.026 484.637 328.474C484.941 328.906 485.389 329.122 485.981 329.122C486.445 329.122 486.797 328.994 487.037 328.738C487.277 328.466 487.397 328.106 487.397 327.658C487.397 327.258 487.309 326.898 487.133 326.578C486.957 326.258 486.669 325.93 486.269 325.594L483.893 323.554C483.413 323.138 483.005 322.674 482.669 322.162C482.349 321.65 482.189 320.986 482.189 320.17C482.189 319.434 482.333 318.818 482.621 318.322C482.925 317.81 483.341 317.426 483.869 317.17C484.413 316.898 485.045 316.762 485.765 316.762C486.869 316.762 487.709 317.122 488.285 317.842C488.877 318.546 489.213 319.402 489.293 320.41L487.565 321.058C487.501 320.578 487.405 320.162 487.277 319.81C487.149 319.442 486.973 319.162 486.749 318.97C486.525 318.762 486.229 318.658 485.861 318.658C485.445 318.658 485.109 318.802 484.853 319.09C484.613 319.362 484.493 319.69 484.493 320.074C484.493 320.314 484.541 320.554 484.637 320.794C484.749 321.018 484.933 321.242 485.189 321.466L487.637 323.722C487.973 324.026 488.285 324.354 488.573 324.706C488.877 325.058 489.125 325.458 489.317 325.906C489.509 326.354 489.605 326.874 489.605 327.466C489.605 328.25 489.445 328.906 489.125 329.434C488.805 329.962 488.357 330.362 487.781 330.634C487.205 330.89 486.533 331.018 485.765 331.018ZM491.934 330.826V316.954H494.502V330.826H491.934ZM491.934 314.89V312.202H494.502V314.89H491.934ZM501.282 331.018C500.146 331.018 499.282 330.794 498.69 330.346C498.114 329.882 497.722 329.234 497.514 328.402C497.322 327.57 497.226 326.602 497.226 325.498V322.306C497.226 321.138 497.33 320.146 497.538 319.33C497.746 318.498 498.138 317.866 498.714 317.434C499.306 316.986 500.162 316.762 501.282 316.762C502.29 316.762 503.066 316.93 503.61 317.266C504.17 317.586 504.554 318.074 504.762 318.73C504.97 319.37 505.074 320.17 505.074 321.13V321.946H502.746V321.106C502.746 320.498 502.706 320.018 502.626 319.666C502.546 319.314 502.402 319.058 502.194 318.898C501.986 318.738 501.69 318.658 501.306 318.658C500.89 318.658 500.57 318.754 500.346 318.946C500.122 319.138 499.97 319.466 499.89 319.93C499.826 320.378 499.794 320.994 499.794 321.778V326.146C499.794 327.33 499.906 328.122 500.13 328.522C500.354 328.922 500.754 329.122 501.33 329.122C501.762 329.122 502.074 329.026 502.266 328.834C502.474 328.626 502.602 328.338 502.65 327.97C502.714 327.602 502.746 327.186 502.746 326.722V325.594H505.074V326.554C505.074 327.482 504.962 328.282 504.738 328.954C504.53 329.626 504.146 330.138 503.586 330.49C503.042 330.842 502.274 331.018 501.282 331.018ZM510.093 331.018C509.549 331.018 509.069 330.866 508.653 330.562C508.237 330.242 507.909 329.842 507.669 329.362C507.429 328.866 507.309 328.346 507.309 327.802C507.309 326.938 507.453 326.21 507.741 325.618C508.029 325.026 508.421 324.53 508.917 324.13C509.429 323.714 510.013 323.354 510.669 323.05C511.341 322.746 512.045 322.45 512.781 322.162V321.178C512.781 320.618 512.749 320.154 512.685 319.786C512.621 319.418 512.485 319.146 512.277 318.97C512.085 318.778 511.789 318.682 511.389 318.682C511.037 318.682 510.749 318.762 510.525 318.922C510.317 319.082 510.165 319.314 510.069 319.618C509.973 319.906 509.925 320.25 509.925 320.65V321.346L507.381 321.25C507.413 319.714 507.765 318.586 508.437 317.866C509.109 317.13 510.149 316.762 511.557 316.762C512.933 316.762 513.909 317.138 514.485 317.89C515.061 318.642 515.349 319.73 515.349 321.154V327.49C515.349 327.922 515.357 328.338 515.373 328.738C515.405 329.138 515.437 329.514 515.469 329.866C515.517 330.202 515.557 330.522 515.589 330.826H513.237C513.189 330.57 513.125 330.25 513.045 329.866C512.981 329.466 512.933 329.106 512.901 328.786C512.741 329.33 512.429 329.842 511.965 330.322C511.517 330.786 510.893 331.018 510.093 331.018ZM511.101 328.81C511.357 328.81 511.597 328.738 511.821 328.594C512.045 328.45 512.245 328.29 512.421 328.114C512.597 327.922 512.717 327.77 512.781 327.658V323.722C512.381 323.946 512.005 324.17 511.653 324.394C511.301 324.618 510.989 324.858 510.717 325.114C510.461 325.354 510.253 325.634 510.093 325.954C509.949 326.258 509.877 326.61 509.877 327.01C509.877 327.57 509.981 328.01 510.189 328.33C510.397 328.65 510.701 328.81 511.101 328.81ZM517.24 317.338V311.386H519.568L518.632 317.338H517.24ZM524.559 331.018C523.423 331.018 522.511 330.666 521.823 329.962C521.135 329.242 520.743 328.298 520.647 327.13L522.783 326.482C522.911 327.362 523.127 328.026 523.431 328.474C523.735 328.906 524.183 329.122 524.775 329.122C525.239 329.122 525.591 328.994 525.831 328.738C526.071 328.466 526.191 328.106 526.191 327.658C526.191 327.258 526.103 326.898 525.927 326.578C525.751 326.258 525.463 325.93 525.063 325.594L522.687 323.554C522.207 323.138 521.799 322.674 521.463 322.162C521.143 321.65 520.983 320.986 520.983 320.17C520.983 319.434 521.127 318.818 521.415 318.322C521.719 317.81 522.135 317.426 522.663 317.17C523.207 316.898 523.839 316.762 524.559 316.762C525.663 316.762 526.503 317.122 527.079 317.842C527.671 318.546 528.007 319.402 528.087 320.41L526.359 321.058C526.295 320.578 526.199 320.162 526.071 319.81C525.943 319.442 525.767 319.162 525.543 318.97C525.319 318.762 525.023 318.658 524.655 318.658C524.239 318.658 523.903 318.802 523.647 319.09C523.407 319.362 523.287 319.69 523.287 320.074C523.287 320.314 523.335 320.554 523.431 320.794C523.543 321.018 523.727 321.242 523.983 321.466L526.431 323.722C526.767 324.026 527.079 324.354 527.367 324.706C527.671 325.058 527.919 325.458 528.111 325.906C528.303 326.354 528.399 326.874 528.399 327.466C528.399 328.25 528.239 328.906 527.919 329.434C527.599 329.962 527.151 330.362 526.575 330.634C525.999 330.89 525.327 331.018 524.559 331.018ZM540.124 331.018C539.036 331.018 538.196 330.81 537.604 330.394C537.012 329.962 536.596 329.338 536.356 328.522C536.132 327.69 536.02 326.674 536.02 325.474V322.306C536.02 321.074 536.14 320.05 536.38 319.234C536.62 318.418 537.036 317.802 537.628 317.386C538.236 316.97 539.068 316.762 540.124 316.762C541.292 316.762 542.148 317.002 542.692 317.482C543.252 317.962 543.62 318.658 543.796 319.57C543.972 320.466 544.06 321.546 544.06 322.81V323.938H538.588V326.722C538.588 327.282 538.636 327.738 538.732 328.09C538.844 328.442 539.012 328.706 539.236 328.882C539.476 329.042 539.78 329.122 540.148 329.122C540.532 329.122 540.82 329.034 541.012 328.858C541.22 328.666 541.356 328.402 541.42 328.066C541.5 327.714 541.54 327.306 541.54 326.842V326.002H544.036V326.53C544.036 327.922 543.74 329.018 543.148 329.818C542.556 330.618 541.548 331.018 540.124 331.018ZM538.588 322.546H541.54V321.298C541.54 320.722 541.508 320.242 541.444 319.858C541.38 319.458 541.244 319.162 541.036 318.97C540.844 318.762 540.532 318.658 540.1 318.658C539.684 318.658 539.364 318.754 539.14 318.946C538.932 319.138 538.788 319.466 538.708 319.93C538.628 320.378 538.588 321.002 538.588 321.802V322.546ZM545.545 330.826L548.665 323.53L545.617 316.954H548.065L550.105 321.346L551.905 316.954H554.425L551.257 323.842L554.473 330.826H552.025L549.841 326.122L547.969 330.826H545.545ZM556.194 335.386V316.954H558.762V318.058C559.066 317.706 559.434 317.402 559.866 317.146C560.298 316.89 560.81 316.762 561.402 316.762C562.122 316.762 562.69 316.954 563.106 317.338C563.538 317.706 563.858 318.178 564.066 318.754C564.274 319.314 564.41 319.89 564.474 320.482C564.538 321.058 564.57 321.554 564.57 321.97V325.33C564.57 326.306 564.474 327.234 564.282 328.114C564.09 328.978 563.738 329.682 563.226 330.226C562.73 330.754 562.026 331.018 561.114 331.018C560.618 331.018 560.178 330.898 559.794 330.658C559.41 330.402 559.066 330.114 558.762 329.794V335.386H556.194ZM560.61 329.002C561.058 329.002 561.378 328.842 561.57 328.522C561.762 328.186 561.882 327.738 561.93 327.178C561.978 326.618 562.002 326.002 562.002 325.33V321.97C562.002 321.394 561.97 320.866 561.906 320.386C561.842 319.89 561.706 319.498 561.498 319.21C561.29 318.922 560.962 318.778 560.514 318.778C560.178 318.778 559.858 318.85 559.554 318.994C559.25 319.138 558.986 319.306 558.762 319.498V328.378C559.002 328.554 559.274 328.706 559.578 328.834C559.882 328.946 560.226 329.002 560.61 329.002ZM570.985 331.018C569.897 331.018 569.057 330.81 568.465 330.394C567.873 329.962 567.457 329.338 567.217 328.522C566.993 327.69 566.881 326.674 566.881 325.474V322.306C566.881 321.074 567.001 320.05 567.241 319.234C567.481 318.418 567.897 317.802 568.489 317.386C569.097 316.97 569.929 316.762 570.985 316.762C572.153 316.762 573.009 317.002 573.553 317.482C574.113 317.962 574.481 318.658 574.657 319.57C574.833 320.466 574.921 321.546 574.921 322.81V323.938H569.449V326.722C569.449 327.282 569.497 327.738 569.593 328.09C569.705 328.442 569.873 328.706 570.097 328.882C570.337 329.042 570.641 329.122 571.009 329.122C571.393 329.122 571.681 329.034 571.873 328.858C572.081 328.666 572.217 328.402 572.281 328.066C572.361 327.714 572.401 327.306 572.401 326.842V326.002H574.897V326.53C574.897 327.922 574.601 329.018 574.009 329.818C573.417 330.618 572.409 331.018 570.985 331.018ZM569.449 322.546H572.401V321.298C572.401 320.722 572.369 320.242 572.305 319.858C572.241 319.458 572.105 319.162 571.897 318.97C571.705 318.762 571.393 318.658 570.961 318.658C570.545 318.658 570.225 318.754 570.001 318.946C569.793 319.138 569.649 319.466 569.569 319.93C569.489 320.378 569.449 321.002 569.449 321.802V322.546ZM577.558 330.826V316.954H580.126V318.922C580.638 318.074 581.15 317.506 581.662 317.218C582.174 316.93 582.686 316.786 583.198 316.786C583.262 316.786 583.318 316.786 583.366 316.786C583.43 316.786 583.51 316.794 583.606 316.81V319.642C583.414 319.562 583.19 319.498 582.934 319.45C582.694 319.386 582.446 319.354 582.19 319.354C581.79 319.354 581.422 319.45 581.086 319.642C580.766 319.818 580.446 320.17 580.126 320.698V330.826H577.558ZM589.133 331.018C588.413 331.018 587.829 330.882 587.381 330.61C586.949 330.338 586.629 329.954 586.421 329.458C586.229 328.962 586.133 328.378 586.133 327.706V318.658H584.669V316.954H586.133V312.898H588.701V316.954H590.933V318.658H588.701V327.538C588.701 328.082 588.789 328.474 588.965 328.714C589.141 328.938 589.477 329.05 589.973 329.05C590.101 329.05 590.245 329.042 590.405 329.026C590.581 329.01 590.749 328.994 590.909 328.978V330.874C590.589 330.922 590.293 330.954 590.021 330.97C589.749 331.002 589.453 331.018 589.133 331.018ZM602.384 335.122C601.552 335.122 600.8 335.034 600.128 334.858C599.456 334.682 598.928 334.402 598.544 334.018C598.16 333.634 597.968 333.13 597.968 332.506C597.968 332.058 598.064 331.666 598.256 331.33C598.448 330.994 598.696 330.706 599 330.466C599.304 330.21 599.624 330.002 599.96 329.842C599.512 329.714 599.176 329.514 598.952 329.242C598.728 328.954 598.616 328.658 598.616 328.354C598.616 327.842 598.752 327.402 599.024 327.034C599.296 326.666 599.672 326.266 600.152 325.834C599.624 325.434 599.224 324.922 598.952 324.298C598.68 323.674 598.544 322.81 598.544 321.706C598.544 320.618 598.688 319.714 598.976 318.994C599.28 318.258 599.72 317.706 600.296 317.338C600.888 316.954 601.608 316.762 602.456 316.762C603.208 316.762 603.808 316.89 604.256 317.146C604.72 317.402 605.072 317.786 605.312 318.298C605.392 318.17 605.608 317.954 605.96 317.65C606.312 317.33 606.72 317.066 607.184 316.858L607.568 316.69L608.216 318.346C608.008 318.378 607.728 318.458 607.376 318.586C607.04 318.698 606.72 318.818 606.416 318.946C606.128 319.058 605.944 319.154 605.864 319.234C605.976 319.506 606.072 319.898 606.152 320.41C606.248 320.922 606.296 321.378 606.296 321.778C606.296 322.722 606.176 323.554 605.936 324.274C605.696 324.994 605.296 325.562 604.736 325.978C604.192 326.378 603.432 326.578 602.456 326.578C602.248 326.578 602.024 326.562 601.784 326.53C601.544 326.498 601.328 326.458 601.136 326.41C601.04 326.554 600.936 326.722 600.824 326.914C600.728 327.106 600.68 327.29 600.68 327.466C600.68 327.642 600.768 327.786 600.944 327.898C601.136 327.994 601.432 328.058 601.832 328.09L603.992 328.282C605.08 328.378 605.888 328.706 606.416 329.266C606.944 329.826 607.208 330.626 607.208 331.666C607.208 332.418 607.032 333.05 606.68 333.562C606.328 334.09 605.792 334.482 605.072 334.738C604.368 334.994 603.472 335.122 602.384 335.122ZM602.576 333.106C603.488 333.106 604.16 332.994 604.592 332.77C605.024 332.562 605.24 332.218 605.24 331.738C605.24 331.45 605.184 331.21 605.072 331.018C604.976 330.826 604.792 330.674 604.52 330.562C604.248 330.45 603.856 330.37 603.344 330.322L601.16 330.13C600.984 330.306 600.816 330.482 600.656 330.658C600.496 330.834 600.368 331.018 600.272 331.21C600.176 331.418 600.128 331.634 600.128 331.858C600.128 332.274 600.304 332.586 600.656 332.794C601.008 333.002 601.648 333.106 602.576 333.106ZM602.456 324.778C602.824 324.778 603.112 324.714 603.32 324.586C603.544 324.442 603.712 324.242 603.824 323.986C603.936 323.714 604.008 323.386 604.04 323.002C604.088 322.618 604.112 322.186 604.112 321.706C604.112 321.226 604.088 320.794 604.04 320.41C604.008 320.01 603.936 319.674 603.824 319.402C603.728 319.114 603.568 318.898 603.344 318.754C603.136 318.61 602.848 318.538 602.48 318.538C602.128 318.538 601.832 318.61 601.592 318.754C601.368 318.898 601.2 319.106 601.088 319.378C600.976 319.634 600.896 319.962 600.848 320.362C600.8 320.746 600.776 321.194 600.776 321.706C600.776 322.138 600.792 322.546 600.824 322.93C600.872 323.298 600.952 323.618 601.064 323.89C601.192 324.162 601.368 324.378 601.592 324.538C601.816 324.698 602.104 324.778 602.456 324.778ZM611.446 331.018C610.902 331.018 610.478 330.874 610.174 330.586C609.87 330.298 609.654 329.938 609.526 329.506C609.414 329.074 609.358 328.634 609.358 328.186V316.954H611.926V327.418C611.926 327.914 611.998 328.306 612.142 328.594C612.286 328.866 612.582 329.002 613.03 329.002C613.318 329.002 613.614 328.922 613.918 328.762C614.238 328.586 614.542 328.378 614.83 328.138V316.954H617.398V330.826H614.83V329.458C614.382 329.89 613.87 330.258 613.294 330.562C612.734 330.866 612.118 331.018 611.446 331.018ZM620.432 330.826V316.954H623V330.826H620.432ZM620.432 314.89V312.202H623V314.89H620.432ZM629.205 331.018C628.037 331.018 627.165 330.594 626.589 329.746C626.013 328.882 625.725 327.426 625.725 325.378V322.69C625.725 321.634 625.813 320.658 625.989 319.762C626.165 318.85 626.493 318.122 626.973 317.578C627.469 317.034 628.189 316.762 629.133 316.762C629.597 316.762 630.021 316.866 630.405 317.074C630.789 317.282 631.133 317.538 631.437 317.842V311.386H634.005V330.826H631.437V329.938C631.133 330.258 630.797 330.522 630.429 330.73C630.077 330.922 629.669 331.018 629.205 331.018ZM629.853 329.002C630.093 329.002 630.349 328.962 630.621 328.882C630.893 328.786 631.165 328.65 631.437 328.474V319.378C631.213 319.218 630.965 319.082 630.693 318.97C630.421 318.842 630.125 318.778 629.805 318.778C629.213 318.778 628.813 319.066 628.605 319.642C628.397 320.202 628.293 320.882 628.293 321.682V325.594C628.293 326.234 628.325 326.818 628.389 327.346C628.469 327.858 628.621 328.266 628.845 328.57C629.069 328.858 629.405 329.002 629.853 329.002ZM639.342 331.018C638.798 331.018 638.318 330.866 637.902 330.562C637.486 330.242 637.158 329.842 636.918 329.362C636.678 328.866 636.558 328.346 636.558 327.802C636.558 326.938 636.702 326.21 636.99 325.618C637.278 325.026 637.67 324.53 638.166 324.13C638.678 323.714 639.262 323.354 639.918 323.05C640.59 322.746 641.294 322.45 642.03 322.162V321.178C642.03 320.618 641.998 320.154 641.934 319.786C641.87 319.418 641.734 319.146 641.526 318.97C641.334 318.778 641.038 318.682 640.638 318.682C640.286 318.682 639.998 318.762 639.774 318.922C639.566 319.082 639.414 319.314 639.318 319.618C639.222 319.906 639.174 320.25 639.174 320.65V321.346L636.63 321.25C636.662 319.714 637.014 318.586 637.686 317.866C638.358 317.13 639.398 316.762 640.806 316.762C642.182 316.762 643.158 317.138 643.734 317.89C644.31 318.642 644.598 319.73 644.598 321.154V327.49C644.598 327.922 644.606 328.338 644.622 328.738C644.654 329.138 644.686 329.514 644.718 329.866C644.766 330.202 644.806 330.522 644.838 330.826H642.486C642.438 330.57 642.374 330.25 642.294 329.866C642.23 329.466 642.182 329.106 642.15 328.786C641.99 329.33 641.678 329.842 641.214 330.322C640.766 330.786 640.142 331.018 639.342 331.018ZM640.35 328.81C640.606 328.81 640.846 328.738 641.07 328.594C641.294 328.45 641.494 328.29 641.67 328.114C641.846 327.922 641.966 327.77 642.03 327.658V323.722C641.63 323.946 641.254 324.17 640.902 324.394C640.55 324.618 640.238 324.858 639.966 325.114C639.71 325.354 639.502 325.634 639.342 325.954C639.198 326.258 639.126 326.61 639.126 327.01C639.126 327.57 639.23 328.01 639.438 328.33C639.646 328.65 639.95 328.81 640.35 328.81ZM647.305 330.826V316.954H649.873V318.322C650.337 317.89 650.849 317.522 651.409 317.218C651.969 316.914 652.585 316.762 653.257 316.762C653.817 316.762 654.241 316.906 654.529 317.194C654.833 317.482 655.041 317.842 655.153 318.274C655.281 318.706 655.345 319.146 655.345 319.594V330.826H652.777V320.338C652.777 319.842 652.705 319.458 652.561 319.186C652.417 318.914 652.121 318.778 651.673 318.778C651.385 318.778 651.081 318.866 650.761 319.042C650.457 319.202 650.161 319.402 649.873 319.642V330.826H647.305ZM661.883 331.018C660.747 331.018 659.883 330.794 659.291 330.346C658.715 329.882 658.323 329.234 658.115 328.402C657.923 327.57 657.827 326.602 657.827 325.498V322.306C657.827 321.138 657.931 320.146 658.139 319.33C658.347 318.498 658.739 317.866 659.315 317.434C659.907 316.986 660.763 316.762 661.883 316.762C662.891 316.762 663.667 316.93 664.211 317.266C664.771 317.586 665.155 318.074 665.363 318.73C665.571 319.37 665.675 320.17 665.675 321.13V321.946H663.347V321.106C663.347 320.498 663.307 320.018 663.227 319.666C663.147 319.314 663.003 319.058 662.795 318.898C662.587 318.738 662.291 318.658 661.907 318.658C661.491 318.658 661.171 318.754 660.947 318.946C660.723 319.138 660.571 319.466 660.491 319.93C660.427 320.378 660.395 320.994 660.395 321.778V326.146C660.395 327.33 660.507 328.122 660.731 328.522C660.955 328.922 661.355 329.122 661.931 329.122C662.363 329.122 662.675 329.026 662.867 328.834C663.075 328.626 663.203 328.338 663.251 327.97C663.315 327.602 663.347 327.186 663.347 326.722V325.594H665.675V326.554C665.675 327.482 665.563 328.282 665.339 328.954C665.131 329.626 664.747 330.138 664.187 330.49C663.643 330.842 662.875 331.018 661.883 331.018ZM672.039 331.018C670.951 331.018 670.111 330.81 669.519 330.394C668.927 329.962 668.511 329.338 668.271 328.522C668.047 327.69 667.935 326.674 667.935 325.474V322.306C667.935 321.074 668.055 320.05 668.295 319.234C668.535 318.418 668.951 317.802 669.543 317.386C670.151 316.97 670.983 316.762 672.039 316.762C673.207 316.762 674.063 317.002 674.607 317.482C675.167 317.962 675.535 318.658 675.711 319.57C675.887 320.466 675.975 321.546 675.975 322.81V323.938H670.503V326.722C670.503 327.282 670.551 327.738 670.647 328.09C670.759 328.442 670.927 328.706 671.151 328.882C671.391 329.042 671.695 329.122 672.063 329.122C672.447 329.122 672.735 329.034 672.927 328.858C673.135 328.666 673.271 328.402 673.335 328.066C673.415 327.714 673.455 327.306 673.455 326.842V326.002H675.951V326.53C675.951 327.922 675.655 329.018 675.063 329.818C674.471 330.618 673.463 331.018 672.039 331.018ZM670.503 322.546H673.455V321.298C673.455 320.722 673.423 320.242 673.359 319.858C673.295 319.458 673.159 319.162 672.951 318.97C672.759 318.762 672.447 318.658 672.015 318.658C671.599 318.658 671.279 318.754 671.055 318.946C670.847 319.138 670.703 319.466 670.623 319.93C670.543 320.378 670.503 321.002 670.503 321.802V322.546ZM678.42 330.826V327.97H680.988V330.826H678.42Z" fill="white"/>
<rect x="87.9609" y="96.9111" width="11.4767" height="124.331" transform="rotate(45 87.9609 96.9111)" fill="#ED042E"/>
<rect x="1123.88" y="169.711" width="11.4767" height="124.331" transform="rotate(45 1123.88 169.711)" fill="#ED042E"/>
</svg>
