<svg width="390" height="418" viewBox="0 0 390 418" fill="none" xmlns="http://www.w3.org/2000/svg">
<path d="M101.805 94.8481V52.5201C101.805 50.3495 101.57 48.7948 101.101 47.8561C100.632 46.9175 99.6637 46.4481 98.197 46.4481V43.7201L116.237 36.1521L117.645 38.9681C116.354 38.9681 115.122 39.7308 113.949 41.2561C112.893 42.7228 112.365 44.9521 112.365 47.9441V89.5681C112.365 91.5041 112.776 93.1761 113.597 94.5841C114.418 95.9921 115.445 96.6961 116.677 96.6961V98.6321C116.266 98.6908 113.069 100.48 107.085 104C106.674 103.883 106.176 103.736 105.589 103.56C105.002 103.325 104.21 102.739 103.213 101.8C102.274 100.861 101.805 99.7761 101.805 98.5441C101.453 98.7201 100.456 99.2775 98.813 100.216C94.4717 102.68 91.8903 103.912 91.069 103.912C89.1917 103.912 87.4317 102.709 85.789 100.304C84.1463 97.8401 83.325 95.5521 83.325 93.4401V49.1761C83.325 45.9495 81.8877 44.0428 79.013 43.4561V41.5201L88.605 36.1521C89.8957 36.6801 91.0983 37.5601 92.213 38.7921C93.3277 39.9655 93.885 41.0801 93.885 42.1361V85.2561C93.885 88.9521 94.413 91.4748 95.469 92.8241C96.5837 94.1735 98.6957 94.8481 101.805 94.8481ZM122.018 98.0161V68.1841C122.018 66.2481 121.607 64.5761 120.786 63.1681C119.964 61.7601 118.938 61.0561 117.706 61.0561V59.1201C118.116 59.0615 121.314 57.2721 127.298 53.7521C127.708 53.8695 128.207 54.0455 128.794 54.2801C129.38 54.4561 130.143 55.0135 131.082 55.9521C132.079 56.8908 132.578 57.9761 132.578 59.2081C132.93 59.0321 133.927 58.4748 135.57 57.5361C139.911 55.0721 142.492 53.8401 143.314 53.8401C145.191 53.8401 146.951 55.0721 148.594 57.5361C150.236 60.0001 151.058 62.2588 151.058 64.3121V90.9761C151.058 94.2028 152.495 96.1095 155.37 96.6961V98.6321L145.778 104C144.487 103.472 143.284 102.621 142.17 101.448C141.055 100.216 140.498 99.0721 140.498 98.0161V72.4961C140.498 69.2108 140.116 66.7175 139.354 65.0161C138.65 63.2561 137.359 62.3761 135.482 62.3761L132.578 62.9041V90.9761C132.578 94.5548 133.78 96.5788 136.186 97.0481V98.9841L127.298 104C126.007 103.472 124.804 102.621 123.69 101.448C122.575 100.216 122.018 99.0721 122.018 98.0161ZM171.27 42.3121V90.9761C171.27 94.5548 172.473 96.5788 174.878 97.0481V98.9841L165.99 104C164.699 103.472 163.497 102.621 162.382 101.448C161.267 100.216 160.71 99.0721 160.71 98.0161V49.3521C160.71 45.7735 159.507 43.7495 157.102 43.2801V41.3441L165.99 36.3281C167.281 36.8561 168.483 37.7361 169.598 38.9681C170.713 40.1415 171.27 41.2561 171.27 42.3121ZM202.486 53.8401C202.779 53.8401 203.513 54.3095 204.686 55.2481C205.859 56.1281 207.033 57.3895 208.206 59.0321C209.379 60.6161 209.966 62.1708 209.966 63.6961V78.4801C209.966 79.5361 208.411 80.8268 205.302 82.3521C202.193 83.8775 199.171 85.1388 196.238 86.1361C193.363 87.0748 191.809 87.5441 191.574 87.5441C191.574 92.0615 193.539 94.8481 197.47 95.9041C199.406 96.3735 201.723 96.6081 204.422 96.6081V99.1601C194.801 102.387 189.667 104 189.022 104C187.262 104 185.473 102.768 183.654 100.304C181.835 97.7815 180.926 94.8481 180.926 91.5041V61.9361C180.926 61.5255 184.27 60.0881 190.958 57.6241C197.646 55.1015 201.489 53.8401 202.486 53.8401ZM199.406 67.8321C199.406 66.1895 199.025 64.8108 198.262 63.6961C197.499 62.5228 196.531 61.9361 195.358 61.9361C194.185 61.9361 192.894 62.3761 191.486 63.2561V83.5841C196.766 82.1175 199.406 78.9495 199.406 74.0801V67.8321ZM242.086 65.4561V90.3601C242.086 92.5308 242.438 94.0561 243.142 94.9361C243.846 95.7575 244.931 96.3441 246.398 96.6961V98.6321L236.806 104C235.515 103.472 234.313 102.621 233.198 101.448C232.083 100.216 231.526 99.1015 231.526 98.1041L220.526 104C220.35 103.883 220.086 103.736 219.734 103.56C219.382 103.325 218.766 102.885 217.886 102.24C217.065 101.536 216.331 100.803 215.686 100.04C213.926 98.1041 213.046 95.9041 213.046 93.4401V79.0081C213.046 78.0695 214.571 76.8668 217.622 75.4001C220.673 73.9335 223.723 72.7308 226.774 71.7921L231.438 70.2961C231.438 66.9521 230.558 64.6348 228.798 63.3441C227.038 61.9948 223.635 61.3201 218.59 61.3201V58.6801C227.683 55.4535 232.787 53.8401 233.902 53.8401C235.838 53.8401 237.686 55.1015 239.446 57.6241C241.206 60.1468 242.086 62.7575 242.086 65.4561ZM223.606 90.2721C223.606 91.7975 224.046 93.0588 224.926 94.0561C225.865 94.9948 226.891 95.4641 228.006 95.4641C229.121 95.4641 230.294 95.0241 231.526 94.1441V74.2561C230.059 74.7841 228.945 75.2241 228.182 75.5761C227.478 75.9281 226.715 76.4855 225.894 77.2481C224.369 78.6561 223.606 81.0908 223.606 84.5521V90.2721ZM255.828 84.7281C254.361 84.7281 253.1 83.6135 252.044 81.3841C250.988 79.1548 250.46 76.4268 250.46 73.2001V63.6961C250.46 62.5815 253.54 60.6748 259.7 57.9761C265.86 55.2188 269.409 53.8401 270.348 53.8401C270.876 53.8401 271.345 54.1628 271.756 54.8081C272.166 55.3948 272.489 55.8935 272.724 56.3041C272.958 56.6561 273.31 57.3015 273.78 58.2401C274.308 59.1201 274.748 59.8535 275.1 60.4401C275.862 61.8481 276.83 62.5521 278.004 62.5521V64.3121C277.065 64.7228 275.833 65.3388 274.308 66.1601C270.553 68.2135 268.529 69.2401 268.236 69.2401C267.356 69.2401 266.388 67.8028 265.332 64.9281C264.334 62.0535 263.425 60.6161 262.604 60.6161C261.548 60.6161 261.02 61.4961 261.02 63.2561V74.0801C261.02 76.4268 261.548 77.6001 262.604 77.6001C262.838 77.6001 264.657 76.8375 268.06 75.3121C271.462 73.7868 273.516 73.0241 274.22 73.0241C275.628 73.0241 276.86 74.1681 277.916 76.4561C279.03 78.6855 279.588 81.5601 279.588 85.0801V95.0241C279.588 96.1388 276.214 98.0748 269.468 100.832C262.78 103.531 258.937 104.88 257.94 104.88C257.529 104.88 257.118 104.528 256.708 103.824C256.356 103.061 255.828 101.917 255.124 100.392C254.478 98.8668 253.833 97.5761 253.188 96.5201C252.425 95.1121 251.457 94.4081 250.284 94.4081V92.6481C251.222 92.2375 252.484 91.6215 254.068 90.8001C257.764 88.7468 259.758 87.7201 260.052 87.7201C260.932 87.7201 262.017 89.4508 263.308 92.9121C264.657 96.3735 265.742 98.1041 266.564 98.1041C267.15 98.1041 267.708 97.8695 268.236 97.4001C268.764 96.9308 269.028 96.2855 269.028 95.4641V84.4641C269.028 81.8241 268.294 80.5041 266.828 80.5041C266.358 80.5041 264.51 81.2081 261.284 82.6161C258.057 84.0241 256.238 84.7281 255.828 84.7281ZM288.324 98.0161V54.4561C288.324 52.8721 288.06 51.7575 287.532 51.1121C287.004 50.4081 286.094 50.0561 284.804 50.0561V47.5921C292.43 43.6028 299.236 39.8481 305.22 36.3281L306.628 39.1441C306.041 39.4375 305.22 40.0241 304.164 40.9041C303.108 41.7255 302.228 42.5761 301.524 43.4561C299.764 45.6855 298.884 48.2081 298.884 51.0241V58.5041C304.926 55.3948 308.446 53.8401 309.444 53.8401C311.321 53.8401 313.11 55.0135 314.812 57.3601C316.513 59.7068 317.364 62.2881 317.364 65.1041V90.9761C317.364 94.2028 318.801 96.1095 321.676 96.6961V98.6321L312.084 104C310.793 103.472 309.59 102.621 308.476 101.448C307.361 100.216 306.804 99.0721 306.804 98.0161V72.4961C306.804 66.7468 305.748 63.4908 303.636 62.7281C302.638 62.3761 301.054 62.2001 298.884 62.2001V90.9761C298.884 94.5548 300.086 96.5788 302.492 97.0481V98.9841L293.604 104C292.313 103.472 291.11 102.621 289.996 101.448C288.881 100.216 288.324 99.0721 288.324 98.0161ZM159.019 147.736V182.672C159.019 184.901 158.022 188.069 156.027 192.176C154.032 196.341 151.92 199.979 149.691 203.088C147.462 206.256 145.936 207.84 145.115 207.84C143.648 207.84 141.683 207.4 139.219 206.52C136.755 205.64 134.643 204.76 132.883 203.88L130.331 202.56V199.92H133.323C135.611 199.92 138.222 198.6 141.155 195.96C144.088 193.379 146.523 189.917 148.459 185.576C141.83 188.685 138.016 190.24 137.019 190.24C135.2 190.24 133.558 189.096 132.091 186.808C130.683 184.461 129.979 181.851 129.979 178.976V154.776C129.979 151.549 128.542 149.643 125.667 149.056V147.12L135.259 141.752C136.55 142.28 137.752 143.16 138.867 144.392C139.982 145.565 140.539 146.68 140.539 147.736V171.584C140.539 175.691 141.184 178.448 142.475 179.856C143.766 181.205 145.76 181.88 148.459 181.88V154.776C148.459 151.197 147.256 149.173 144.851 148.704V146.768L153.739 141.752C155.03 142.28 156.232 143.16 157.347 144.392C158.462 145.565 159.019 146.68 159.019 147.736ZM168.67 179.152V149.936C168.67 149.525 172.014 148.088 178.702 145.624C185.39 143.101 189.232 141.84 190.23 141.84C191.227 141.84 192.723 143.043 194.718 145.448C196.771 147.853 197.798 150.024 197.798 151.96V183.816C197.798 184.285 194.571 185.781 188.118 188.304C181.723 190.768 177.792 192 176.326 192C174.918 192 173.275 190.739 171.398 188.216C169.579 185.693 168.67 182.672 168.67 179.152ZM183.718 183.904C184.832 183.904 185.976 183.435 187.15 182.496V156.536C187.15 152.195 185.654 150.024 182.662 150.024C181.488 150.024 180.344 150.464 179.23 151.344V177.392C179.23 181.733 180.726 183.904 183.718 183.904ZM218.008 178.272C218.008 179.797 218.448 181.059 219.328 182.056C220.267 182.995 221.293 183.464 222.408 183.464C223.523 183.464 224.696 183.024 225.928 182.144V154.776C225.928 151.197 224.725 149.173 222.32 148.704V146.768L231.208 141.752C232.499 142.28 233.701 143.16 234.816 144.392C235.931 145.565 236.488 146.68 236.488 147.736V177.568C236.488 179.504 236.899 181.176 237.72 182.584C238.541 183.992 239.568 184.696 240.8 184.696V186.632C240.389 186.691 237.192 188.48 231.208 192C229.859 191.413 228.627 190.563 227.512 189.448C226.456 188.275 225.928 187.16 225.928 186.104L214.928 192C214.752 191.883 214.488 191.736 214.136 191.56C213.784 191.325 213.168 190.885 212.288 190.24C211.467 189.536 210.733 188.803 210.088 188.04C208.328 186.104 207.448 183.904 207.448 181.44V154.776C207.448 151.549 206.011 149.643 203.136 149.056V147.12L212.728 141.752C214.019 142.28 215.221 143.16 216.336 144.392C217.451 145.565 218.008 146.68 218.008 147.736V178.272ZM241.828 147.12L251.508 141.84C251.919 141.957 252.388 142.133 252.916 142.368C253.503 142.544 254.266 143.101 255.204 144.04C256.202 144.979 256.7 146.035 256.7 147.208C256.994 147.091 258.372 146.181 260.836 144.48C263.359 142.72 264.972 141.84 265.676 141.84C267.554 141.84 269.314 143.072 270.956 145.536C272.599 148 273.42 150.259 273.42 152.312V156.624L264.356 161.728L262.86 160.496C262.86 155.568 262.391 152.752 261.452 152.048C260.396 151.285 258.812 150.904 256.7 150.904V178.976C256.7 182.555 257.903 184.579 260.308 185.048V186.984L251.42 192C250.13 191.472 248.927 190.621 247.812 189.448C246.698 188.216 246.14 187.072 246.14 186.016V156.8C246.14 154.219 245.671 152.283 244.732 150.992C243.852 149.701 242.884 149.056 241.828 149.056V147.12ZM83.5588 238.024C82.4441 238.024 81.3001 238.493 80.1268 239.432V274.368C81.6521 274.368 83.3534 273.869 85.2308 272.872C87.1081 271.875 88.0468 270.819 88.0468 269.704V244.536C88.0468 240.195 86.5508 238.024 83.5588 238.024ZM69.4788 289.68V243.392C69.4788 242.043 69.0974 240.723 68.3348 239.432C67.6308 238.141 66.6041 237.408 65.2548 237.232V235.296C65.6654 235.237 68.8628 233.448 74.8468 229.928C76.1961 230.515 77.3988 231.395 78.4548 232.568C79.5694 233.683 80.1268 234.739 80.1268 235.736C86.4041 231.864 90.0708 229.928 91.1268 229.928C91.5374 229.928 92.3001 230.397 93.4148 231.336C94.5881 232.216 95.7321 233.536 96.8468 235.296C98.0201 236.997 98.6068 238.757 98.6068 240.576V271.904C98.6068 272.315 95.9961 273.547 90.7748 275.6C85.6121 277.595 82.0334 278.856 80.0388 279.384V282.64C80.0388 286.219 81.2414 288.243 83.6468 288.712V290.648L74.7588 295.664C73.4681 295.136 72.2654 294.256 71.1508 293.024C70.0361 291.851 69.4788 290.736 69.4788 289.68ZM108.171 267.152V237.936C108.171 237.525 111.515 236.088 118.203 233.624C124.891 231.101 128.734 229.84 129.731 229.84C130.729 229.84 132.225 231.043 134.219 233.448C136.273 235.853 137.299 238.024 137.299 239.96V271.816C137.299 272.285 134.073 273.781 127.619 276.304C121.225 278.768 117.294 280 115.827 280C114.419 280 112.777 278.739 110.899 276.216C109.081 273.693 108.171 270.672 108.171 267.152ZM123.219 271.904C124.334 271.904 125.478 271.435 126.651 270.496V244.536C126.651 240.195 125.155 238.024 122.163 238.024C120.99 238.024 119.846 238.464 118.731 239.344V265.392C118.731 269.733 120.227 271.904 123.219 271.904ZM157.51 220.688V231.16H161.998L161.118 235.472H157.51V266.976C157.51 270.555 158.712 272.579 161.118 273.048V274.984L152.23 280C150.939 279.472 149.736 278.621 148.622 277.448C147.507 276.216 146.95 275.072 146.95 274.016V235.56H143.342L144.222 231.864C145.982 231.864 148.094 230.691 150.558 228.344C153.08 225.939 154.576 223.387 155.046 220.688H157.51ZM188.726 229.84C189.019 229.84 189.752 230.309 190.926 231.248C192.099 232.128 193.272 233.389 194.446 235.032C195.619 236.616 196.206 238.171 196.206 239.696V254.48C196.206 255.536 194.651 256.827 191.542 258.352C188.432 259.877 185.411 261.139 182.478 262.136C179.603 263.075 178.048 263.544 177.814 263.544C177.814 268.061 179.779 270.848 183.71 271.904C185.646 272.373 187.963 272.608 190.662 272.608V275.16C181.04 278.387 175.907 280 175.262 280C173.502 280 171.712 278.768 169.894 276.304C168.075 273.781 167.166 270.848 167.166 267.504V237.936C167.166 237.525 170.51 236.088 177.198 233.624C183.886 231.101 187.728 229.84 188.726 229.84ZM185.646 243.832C185.646 242.189 185.264 240.811 184.502 239.696C183.739 238.523 182.771 237.936 181.598 237.936C180.424 237.936 179.134 238.376 177.726 239.256V259.584C183.006 258.117 185.646 254.949 185.646 250.08V243.832ZM205.428 274.016V244.184C205.428 242.248 205.018 240.576 204.196 239.168C203.375 237.76 202.348 237.056 201.116 237.056V235.12C201.527 235.061 204.724 233.272 210.708 229.752C211.119 229.869 211.618 230.045 212.204 230.28C212.791 230.456 213.554 231.013 214.492 231.952C215.49 232.891 215.988 233.976 215.988 235.208C216.34 235.032 217.338 234.475 218.98 233.536C223.322 231.072 225.903 229.84 226.724 229.84C228.602 229.84 230.362 231.072 232.004 233.536C233.647 236 234.468 238.259 234.468 240.312V266.976C234.468 270.203 235.906 272.109 238.78 272.696V274.632L229.188 280C227.898 279.472 226.695 278.621 225.58 277.448C224.466 276.216 223.908 275.072 223.908 274.016V248.496C223.908 245.211 223.527 242.717 222.764 241.016C222.06 239.256 220.77 238.376 218.892 238.376L215.988 238.904V266.976C215.988 270.555 217.191 272.579 219.596 273.048V274.984L210.708 280C209.418 279.472 208.215 278.621 207.1 277.448C205.986 276.216 205.428 275.072 205.428 274.016ZM254.681 220.688V231.16H259.169L258.289 235.472H254.681V266.976C254.681 270.555 255.884 272.579 258.289 273.048V274.984L249.401 280C248.11 279.472 246.908 278.621 245.793 277.448C244.678 276.216 244.121 275.072 244.121 274.016V235.56H240.513L241.393 231.864C243.153 231.864 245.265 230.691 247.729 228.344C250.252 225.939 251.748 223.387 252.217 220.688H254.681ZM274.897 235.824V266.976C274.897 270.555 276.1 272.579 278.505 273.048V274.984L269.617 280C268.326 279.472 267.124 278.621 266.009 277.448C264.894 276.216 264.337 275.072 264.337 274.016V242.864C264.337 239.285 263.134 237.261 260.729 236.792V234.856L269.617 229.84C270.908 230.368 272.11 231.248 273.225 232.48C274.34 233.653 274.897 234.768 274.897 235.824ZM263.017 218.84V213.472C263.017 213.296 264.22 212.768 266.625 211.888C269.089 210.949 270.497 210.48 270.849 210.48C271.26 210.48 271.817 210.979 272.521 211.976C273.284 212.973 273.665 214 273.665 215.056V221.48C273.665 221.656 272.492 222.213 270.145 223.152C267.798 224.032 266.361 224.472 265.833 224.472C265.305 224.472 264.689 223.973 263.985 222.976C263.34 221.92 263.017 220.541 263.017 218.84ZM311.833 241.456V266.36C311.833 268.531 312.185 270.056 312.889 270.936C313.593 271.757 314.678 272.344 316.145 272.696V274.632L306.553 280C305.262 279.472 304.06 278.621 302.945 277.448C301.83 276.216 301.273 275.101 301.273 274.104L290.273 280C290.097 279.883 289.833 279.736 289.481 279.56C289.129 279.325 288.513 278.885 287.633 278.24C286.811 277.536 286.078 276.803 285.433 276.04C283.673 274.104 282.793 271.904 282.793 269.44V255.008C282.793 254.069 284.318 252.867 287.369 251.4C290.419 249.933 293.47 248.731 296.521 247.792L301.185 246.296C301.185 242.952 300.305 240.635 298.545 239.344C296.785 237.995 293.382 237.32 288.337 237.32V234.68C297.43 231.453 302.534 229.84 303.649 229.84C305.585 229.84 307.433 231.101 309.193 233.624C310.953 236.147 311.833 238.757 311.833 241.456ZM293.353 266.272C293.353 267.797 293.793 269.059 294.673 270.056C295.611 270.995 296.638 271.464 297.753 271.464C298.867 271.464 300.041 271.024 301.273 270.144V250.256C299.806 250.784 298.691 251.224 297.929 251.576C297.225 251.928 296.462 252.485 295.641 253.248C294.115 254.656 293.353 257.091 293.353 260.552V266.272ZM332.087 218.312V266.976C332.087 270.555 333.289 272.579 335.695 273.048V274.984L326.807 280C325.516 279.472 324.313 278.621 323.199 277.448C322.084 276.216 321.527 275.072 321.527 274.016V225.352C321.527 221.773 320.324 219.749 317.919 219.28V217.344L326.807 212.328C328.097 212.856 329.3 213.736 330.415 214.968C331.529 216.141 332.087 217.256 332.087 218.312Z" fill="white"/>
<path d="M670 221.29L74.9276 1.08176L150.057 247.935L-280 195.426L317.756 416.976L242.627 167.439L670 221.29Z" stroke="white" stroke-width="0.8"/>
<path d="M78.4108 342V324.99H82.6318C83.6538 324.99 84.4658 325.179 85.0678 325.557C85.6838 325.921 86.1318 326.453 86.4118 327.153C86.6918 327.853 86.8318 328.7 86.8318 329.694C86.8318 330.59 86.6708 331.367 86.3488 332.025C86.0408 332.683 85.5788 333.194 84.9628 333.558C84.3468 333.908 83.5768 334.083 82.6528 334.083H80.7838V342H78.4108ZM80.7838 332.382H81.8758C82.5618 332.382 83.1008 332.305 83.4928 332.151C83.8848 331.997 84.1648 331.731 84.3328 331.353C84.5008 330.961 84.5848 330.415 84.5848 329.715C84.5848 328.903 84.5218 328.28 84.3958 327.846C84.2838 327.412 84.0388 327.111 83.6608 326.943C83.2828 326.775 82.6948 326.691 81.8968 326.691H80.7838V332.382ZM90.2646 342.168C89.7886 342.168 89.4176 342.042 89.1516 341.79C88.8856 341.538 88.6966 341.223 88.5846 340.845C88.4866 340.467 88.4376 340.082 88.4376 339.69V329.862H90.6846V339.018C90.6846 339.452 90.7476 339.795 90.8736 340.047C90.9996 340.285 91.2586 340.404 91.6506 340.404C91.9026 340.404 92.1616 340.334 92.4276 340.194C92.7076 340.04 92.9736 339.858 93.2256 339.648V329.862H95.4726V342H93.2256V340.803C92.8336 341.181 92.3856 341.503 91.8816 341.769C91.3916 342.035 90.8526 342.168 90.2646 342.168ZM100.795 342.168C99.8006 342.168 99.0026 341.86 98.4006 341.244C97.7986 340.614 97.4556 339.788 97.3716 338.766L99.2406 338.199C99.3526 338.969 99.5416 339.55 99.8076 339.942C100.074 340.32 100.466 340.509 100.984 340.509C101.39 340.509 101.698 340.397 101.908 340.173C102.118 339.935 102.223 339.62 102.223 339.228C102.223 338.878 102.146 338.563 101.992 338.283C101.838 338.003 101.586 337.716 101.236 337.422L99.1566 335.637C98.7366 335.273 98.3796 334.867 98.0856 334.419C97.8056 333.971 97.6656 333.39 97.6656 332.676C97.6656 332.032 97.7916 331.493 98.0436 331.059C98.3096 330.611 98.6736 330.275 99.1356 330.051C99.6116 329.813 100.165 329.694 100.795 329.694C101.761 329.694 102.496 330.009 103 330.639C103.518 331.255 103.812 332.004 103.882 332.886L102.37 333.453C102.314 333.033 102.23 332.669 102.118 332.361C102.006 332.039 101.852 331.794 101.656 331.626C101.46 331.444 101.201 331.353 100.879 331.353C100.515 331.353 100.221 331.479 99.9966 331.731C99.7866 331.969 99.6816 332.256 99.6816 332.592C99.6816 332.802 99.7236 333.012 99.8076 333.222C99.9056 333.418 100.067 333.614 100.291 333.81L102.433 335.784C102.727 336.05 103 336.337 103.252 336.645C103.518 336.953 103.735 337.303 103.903 337.695C104.071 338.087 104.155 338.542 104.155 339.06C104.155 339.746 104.015 340.32 103.735 340.782C103.455 341.244 103.063 341.594 102.559 341.832C102.055 342.056 101.467 342.168 100.795 342.168ZM106.108 342V324.99H108.355V331.122C108.761 330.73 109.216 330.394 109.72 330.114C110.224 329.834 110.784 329.694 111.4 329.694C111.876 329.694 112.24 329.82 112.492 330.072C112.758 330.324 112.94 330.639 113.038 331.017C113.15 331.395 113.206 331.78 113.206 332.172V342H110.959V332.823C110.959 332.389 110.896 332.053 110.77 331.815C110.644 331.577 110.385 331.458 109.993 331.458C109.727 331.458 109.447 331.535 109.153 331.689C108.873 331.843 108.607 332.032 108.355 332.256V342H106.108ZM120.427 345.045V343.323C120.973 343.323 121.407 343.295 121.729 343.239C122.051 343.197 122.282 343.106 122.422 342.966C122.562 342.84 122.632 342.658 122.632 342.42C122.632 342.294 122.583 342.014 122.485 341.58C122.387 341.146 122.282 340.684 122.17 340.194L119.734 329.862H122.002L123.64 338.934L125.215 329.862H127.483L124.585 342.672C124.459 343.26 124.228 343.722 123.892 344.058C123.556 344.408 123.122 344.66 122.59 344.814C122.072 344.968 121.442 345.045 120.7 345.045H120.427ZM132.388 342.168C131.492 342.168 130.785 341.986 130.267 341.622C129.749 341.258 129.378 340.74 129.154 340.068C128.944 339.396 128.839 338.605 128.839 337.695V334.167C128.839 333.257 128.944 332.466 129.154 331.794C129.378 331.122 129.749 330.604 130.267 330.24C130.785 329.876 131.492 329.694 132.388 329.694C133.284 329.694 133.984 329.876 134.488 330.24C135.006 330.604 135.37 331.122 135.58 331.794C135.804 332.466 135.916 333.257 135.916 334.167V337.695C135.916 338.605 135.804 339.396 135.58 340.068C135.37 340.74 135.006 341.258 134.488 341.622C133.984 341.986 133.284 342.168 132.388 342.168ZM132.388 340.509C132.822 340.509 133.123 340.383 133.291 340.131C133.473 339.879 133.578 339.55 133.606 339.144C133.648 338.724 133.669 338.29 133.669 337.842V334.041C133.669 333.579 133.648 333.145 133.606 332.739C133.578 332.333 133.473 332.004 133.291 331.752C133.123 331.486 132.822 331.353 132.388 331.353C131.954 331.353 131.646 331.486 131.464 331.752C131.282 332.004 131.17 332.333 131.128 332.739C131.1 333.145 131.086 333.579 131.086 334.041V337.842C131.086 338.29 131.1 338.724 131.128 339.144C131.17 339.55 131.282 339.879 131.464 340.131C131.646 340.383 131.954 340.509 132.388 340.509ZM139.923 342.168C139.447 342.168 139.076 342.042 138.81 341.79C138.544 341.538 138.355 341.223 138.243 340.845C138.145 340.467 138.096 340.082 138.096 339.69V329.862H140.343V339.018C140.343 339.452 140.406 339.795 140.532 340.047C140.658 340.285 140.917 340.404 141.309 340.404C141.561 340.404 141.82 340.334 142.086 340.194C142.366 340.04 142.632 339.858 142.884 339.648V329.862H145.131V342H142.884V340.803C142.492 341.181 142.044 341.503 141.54 341.769C141.05 342.035 140.511 342.168 139.923 342.168ZM147.702 342V329.862H149.949V331.584C150.397 330.842 150.845 330.345 151.293 330.093C151.741 329.841 152.189 329.715 152.637 329.715C152.693 329.715 152.742 329.715 152.784 329.715C152.84 329.715 152.91 329.722 152.994 329.736V332.214C152.826 332.144 152.63 332.088 152.406 332.046C152.196 331.99 151.979 331.962 151.755 331.962C151.405 331.962 151.083 332.046 150.789 332.214C150.509 332.368 150.229 332.676 149.949 333.138V342H147.702ZM157.41 342.168C156.416 342.168 155.618 341.86 155.016 341.244C154.414 340.614 154.071 339.788 153.987 338.766L155.856 338.199C155.968 338.969 156.157 339.55 156.423 339.942C156.689 340.32 157.081 340.509 157.599 340.509C158.005 340.509 158.313 340.397 158.523 340.173C158.733 339.935 158.838 339.62 158.838 339.228C158.838 338.878 158.761 338.563 158.607 338.283C158.453 338.003 158.201 337.716 157.851 337.422L155.772 335.637C155.352 335.273 154.995 334.867 154.701 334.419C154.421 333.971 154.281 333.39 154.281 332.676C154.281 332.032 154.407 331.493 154.659 331.059C154.925 330.611 155.289 330.275 155.751 330.051C156.227 329.813 156.78 329.694 157.41 329.694C158.376 329.694 159.111 330.009 159.615 330.639C160.133 331.255 160.427 332.004 160.497 332.886L158.985 333.453C158.929 333.033 158.845 332.669 158.733 332.361C158.621 332.039 158.467 331.794 158.271 331.626C158.075 331.444 157.816 331.353 157.494 331.353C157.13 331.353 156.836 331.479 156.612 331.731C156.402 331.969 156.297 332.256 156.297 332.592C156.297 332.802 156.339 333.012 156.423 333.222C156.521 333.418 156.682 333.614 156.906 333.81L159.048 335.784C159.342 336.05 159.615 336.337 159.867 336.645C160.133 336.953 160.35 337.303 160.518 337.695C160.686 338.087 160.77 338.542 160.77 339.06C160.77 339.746 160.63 340.32 160.35 340.782C160.07 341.244 159.678 341.594 159.174 341.832C158.67 342.056 158.082 342.168 157.41 342.168ZM166.021 342.168C165.069 342.168 164.334 341.986 163.816 341.622C163.298 341.244 162.934 340.698 162.724 339.984C162.528 339.256 162.43 338.367 162.43 337.317V334.545C162.43 333.467 162.535 332.571 162.745 331.857C162.955 331.143 163.319 330.604 163.837 330.24C164.369 329.876 165.097 329.694 166.021 329.694C167.043 329.694 167.792 329.904 168.268 330.324C168.758 330.744 169.08 331.353 169.234 332.151C169.388 332.935 169.465 333.88 169.465 334.986V335.973H164.677V338.409C164.677 338.899 164.719 339.298 164.803 339.606C164.901 339.914 165.048 340.145 165.244 340.299C165.454 340.439 165.72 340.509 166.042 340.509C166.378 340.509 166.63 340.432 166.798 340.278C166.98 340.11 167.099 339.879 167.155 339.585C167.225 339.277 167.26 338.92 167.26 338.514V337.779H169.444V338.241C169.444 339.459 169.185 340.418 168.667 341.118C168.149 341.818 167.267 342.168 166.021 342.168ZM164.677 334.755H167.26V333.663C167.26 333.159 167.232 332.739 167.176 332.403C167.12 332.053 167.001 331.794 166.819 331.626C166.651 331.444 166.378 331.353 166 331.353C165.636 331.353 165.356 331.437 165.16 331.605C164.978 331.773 164.852 332.06 164.782 332.466C164.712 332.858 164.677 333.404 164.677 334.104V334.755ZM171.92 342V324.99H174.167V342H171.92ZM177.432 342V331.521H175.983V329.862H177.432V329.232C177.432 328.476 177.488 327.832 177.6 327.3C177.726 326.754 177.978 326.334 178.356 326.04C178.734 325.746 179.301 325.599 180.057 325.599C180.337 325.599 180.582 325.613 180.792 325.641C181.016 325.655 181.261 325.69 181.527 325.746V327.384C181.401 327.356 181.261 327.335 181.107 327.321C180.953 327.293 180.813 327.279 180.687 327.279C180.253 327.279 179.973 327.426 179.847 327.72C179.735 328 179.679 328.378 179.679 328.854V329.862H181.527V331.521H179.679V342H177.432ZM191.2 342.168C190.57 342.168 190.059 342.049 189.667 341.811C189.289 341.573 189.009 341.237 188.827 340.803C188.659 340.369 188.575 339.858 188.575 339.27V331.353H187.294V329.862H188.575V326.313H190.822V329.862H192.775V331.353H190.822V339.123C190.822 339.599 190.899 339.942 191.053 340.152C191.207 340.348 191.501 340.446 191.935 340.446C192.047 340.446 192.173 340.439 192.313 340.425C192.467 340.411 192.614 340.397 192.754 340.383V342.042C192.474 342.084 192.215 342.112 191.977 342.126C191.739 342.154 191.48 342.168 191.2 342.168ZM197.975 342.168C197.079 342.168 196.372 341.986 195.854 341.622C195.336 341.258 194.965 340.74 194.741 340.068C194.531 339.396 194.426 338.605 194.426 337.695V334.167C194.426 333.257 194.531 332.466 194.741 331.794C194.965 331.122 195.336 330.604 195.854 330.24C196.372 329.876 197.079 329.694 197.975 329.694C198.871 329.694 199.571 329.876 200.075 330.24C200.593 330.604 200.957 331.122 201.167 331.794C201.391 332.466 201.503 333.257 201.503 334.167V337.695C201.503 338.605 201.391 339.396 201.167 340.068C200.957 340.74 200.593 341.258 200.075 341.622C199.571 341.986 198.871 342.168 197.975 342.168ZM197.975 340.509C198.409 340.509 198.71 340.383 198.878 340.131C199.06 339.879 199.165 339.55 199.193 339.144C199.235 338.724 199.256 338.29 199.256 337.842V334.041C199.256 333.579 199.235 333.145 199.193 332.739C199.165 332.333 199.06 332.004 198.878 331.752C198.71 331.486 198.409 331.353 197.975 331.353C197.541 331.353 197.233 331.486 197.051 331.752C196.869 332.004 196.757 332.333 196.715 332.739C196.687 333.145 196.673 333.579 196.673 334.041V337.842C196.673 338.29 196.687 338.724 196.715 339.144C196.757 339.55 196.869 339.879 197.051 340.131C197.233 340.383 197.541 340.509 197.975 340.509ZM212.01 342.168C211.38 342.168 210.869 342.049 210.477 341.811C210.099 341.573 209.819 341.237 209.637 340.803C209.469 340.369 209.385 339.858 209.385 339.27V331.353H208.104V329.862H209.385V326.313H211.632V329.862H213.585V331.353H211.632V339.123C211.632 339.599 211.709 339.942 211.863 340.152C212.017 340.348 212.311 340.446 212.745 340.446C212.857 340.446 212.983 340.439 213.123 340.425C213.277 340.411 213.424 340.397 213.564 340.383V342.042C213.284 342.084 213.025 342.112 212.787 342.126C212.549 342.154 212.29 342.168 212.01 342.168ZM215.509 342V324.99H217.756V331.122C218.162 330.73 218.617 330.394 219.121 330.114C219.625 329.834 220.185 329.694 220.801 329.694C221.277 329.694 221.641 329.82 221.893 330.072C222.159 330.324 222.341 330.639 222.439 331.017C222.551 331.395 222.607 331.78 222.607 332.172V342H220.36V332.823C220.36 332.389 220.297 332.053 220.171 331.815C220.045 331.577 219.786 331.458 219.394 331.458C219.128 331.458 218.848 331.535 218.554 331.689C218.274 331.843 218.008 332.032 217.756 332.256V342H215.509ZM228.368 342.168C227.416 342.168 226.681 341.986 226.163 341.622C225.645 341.244 225.281 340.698 225.071 339.984C224.875 339.256 224.777 338.367 224.777 337.317V334.545C224.777 333.467 224.882 332.571 225.092 331.857C225.302 331.143 225.666 330.604 226.184 330.24C226.716 329.876 227.444 329.694 228.368 329.694C229.39 329.694 230.139 329.904 230.615 330.324C231.105 330.744 231.427 331.353 231.581 332.151C231.735 332.935 231.812 333.88 231.812 334.986V335.973H227.024V338.409C227.024 338.899 227.066 339.298 227.15 339.606C227.248 339.914 227.395 340.145 227.591 340.299C227.801 340.439 228.067 340.509 228.389 340.509C228.725 340.509 228.977 340.432 229.145 340.278C229.327 340.11 229.446 339.879 229.502 339.585C229.572 339.277 229.607 338.92 229.607 338.514V337.779H231.791V338.241C231.791 339.459 231.532 340.418 231.014 341.118C230.496 341.818 229.614 342.168 228.368 342.168ZM227.024 334.755H229.607V333.663C229.607 333.159 229.579 332.739 229.523 332.403C229.467 332.053 229.348 331.794 229.166 331.626C228.998 331.444 228.725 331.353 228.347 331.353C227.983 331.353 227.703 331.437 227.507 331.605C227.325 331.773 227.199 332.06 227.129 332.466C227.059 332.858 227.024 333.404 227.024 334.104V334.755ZM239.275 342V324.99H241.522V342H239.275ZM244.221 342V329.862H246.468V342H244.221ZM244.221 328.056V325.704H246.468V328.056H244.221ZM249.083 342V329.862H251.162V331.017C251.568 330.555 252.016 330.212 252.506 329.988C252.996 329.764 253.5 329.652 254.018 329.652C254.466 329.652 254.865 329.764 255.215 329.988C255.579 330.212 255.838 330.611 255.992 331.185C256.426 330.653 256.895 330.268 257.399 330.03C257.917 329.778 258.456 329.652 259.016 329.652C259.408 329.652 259.765 329.75 260.087 329.946C260.409 330.128 260.668 330.429 260.864 330.849C261.06 331.255 261.158 331.794 261.158 332.466V342H259.1V332.613C259.1 332.025 259.002 331.633 258.806 331.437C258.624 331.227 258.372 331.122 258.05 331.122C257.742 331.122 257.42 331.213 257.084 331.395C256.748 331.563 256.44 331.801 256.16 332.109C256.16 332.165 256.16 332.221 256.16 332.277C256.16 332.333 256.16 332.396 256.16 332.466V342H254.102V332.613C254.102 332.025 254.004 331.633 253.808 331.437C253.626 331.227 253.374 331.122 253.052 331.122C252.744 331.122 252.422 331.213 252.086 331.395C251.764 331.563 251.456 331.801 251.162 332.109V342H249.083ZM263.713 342V329.862H265.96V342H263.713ZM263.713 328.056V325.704H265.96V328.056H263.713ZM271.809 342.168C271.179 342.168 270.668 342.049 270.276 341.811C269.898 341.573 269.618 341.237 269.436 340.803C269.268 340.369 269.184 339.858 269.184 339.27V331.353H267.903V329.862H269.184V326.313H271.431V329.862H273.384V331.353H271.431V339.123C271.431 339.599 271.508 339.942 271.662 340.152C271.816 340.348 272.11 340.446 272.544 340.446C272.656 340.446 272.782 340.439 272.922 340.425C273.076 340.411 273.223 340.397 273.363 340.383V342.042C273.083 342.084 272.824 342.112 272.586 342.126C272.348 342.154 272.089 342.168 271.809 342.168ZM281.661 342L279.708 329.862H281.556L282.816 338.808L284.433 329.862H286.155L287.772 338.766L289.032 329.862H290.88L288.864 342H286.974L285.315 333.432L283.677 342H281.661ZM292.957 342V329.862H295.204V342H292.957ZM292.957 328.056V325.704H295.204V328.056H292.957ZM301.053 342.168C300.423 342.168 299.912 342.049 299.52 341.811C299.142 341.573 298.862 341.237 298.68 340.803C298.512 340.369 298.428 339.858 298.428 339.27V331.353H297.147V329.862H298.428V326.313H300.675V329.862H302.628V331.353H300.675V339.123C300.675 339.599 300.752 339.942 300.906 340.152C301.06 340.348 301.354 340.446 301.788 340.446C301.9 340.446 302.026 340.439 302.166 340.425C302.32 340.411 302.467 340.397 302.607 340.383V342.042C302.327 342.084 302.068 342.112 301.83 342.126C301.592 342.154 301.333 342.168 301.053 342.168ZM304.552 342V324.99H306.799V331.122C307.205 330.73 307.66 330.394 308.164 330.114C308.668 329.834 309.228 329.694 309.844 329.694C310.32 329.694 310.684 329.82 310.936 330.072C311.202 330.324 311.384 330.639 311.482 331.017C311.594 331.395 311.65 331.78 311.65 332.172V342H309.403V332.823C309.403 332.389 309.34 332.053 309.214 331.815C309.088 331.577 308.829 331.458 308.437 331.458C308.171 331.458 307.891 331.535 307.597 331.689C307.317 331.843 307.051 332.032 306.799 332.256V342H304.552ZM95.604 369.399V367.698C96.122 367.698 96.542 367.663 96.864 367.593C97.186 367.523 97.431 367.397 97.599 367.215C97.781 367.033 97.907 366.774 97.977 366.438C98.047 366.088 98.082 365.647 98.082 365.115V351.99H100.434V365.157C100.434 366.137 100.329 366.942 100.119 367.572C99.909 368.188 99.538 368.65 99.006 368.958C98.474 369.252 97.718 369.399 96.738 369.399H95.604ZM106.477 369.168C105.525 369.168 104.79 368.986 104.272 368.622C103.754 368.244 103.39 367.698 103.18 366.984C102.984 366.256 102.886 365.367 102.886 364.317V361.545C102.886 360.467 102.991 359.571 103.201 358.857C103.411 358.143 103.775 357.604 104.293 357.24C104.825 356.876 105.553 356.694 106.477 356.694C107.499 356.694 108.248 356.904 108.724 357.324C109.214 357.744 109.536 358.353 109.69 359.151C109.844 359.935 109.921 360.88 109.921 361.986V362.973H105.133V365.409C105.133 365.899 105.175 366.298 105.259 366.606C105.357 366.914 105.504 367.145 105.7 367.299C105.91 367.439 106.176 367.509 106.498 367.509C106.834 367.509 107.086 367.432 107.254 367.278C107.436 367.11 107.555 366.879 107.611 366.585C107.681 366.277 107.716 365.92 107.716 365.514V364.779H109.9V365.241C109.9 366.459 109.641 367.418 109.123 368.118C108.605 368.818 107.723 369.168 106.477 369.168ZM105.133 361.755H107.716V360.663C107.716 360.159 107.688 359.739 107.632 359.403C107.576 359.053 107.457 358.794 107.275 358.626C107.107 358.444 106.834 358.353 106.456 358.353C106.092 358.353 105.812 358.437 105.616 358.605C105.434 358.773 105.308 359.06 105.238 359.466C105.168 359.858 105.133 360.404 105.133 361.104V361.755ZM114.98 369.168C113.986 369.168 113.188 368.86 112.586 368.244C111.984 367.614 111.641 366.788 111.557 365.766L113.426 365.199C113.538 365.969 113.727 366.55 113.993 366.942C114.259 367.32 114.651 367.509 115.169 367.509C115.575 367.509 115.883 367.397 116.093 367.173C116.303 366.935 116.408 366.62 116.408 366.228C116.408 365.878 116.331 365.563 116.177 365.283C116.023 365.003 115.771 364.716 115.421 364.422L113.342 362.637C112.922 362.273 112.565 361.867 112.271 361.419C111.991 360.971 111.851 360.39 111.851 359.676C111.851 359.032 111.977 358.493 112.229 358.059C112.495 357.611 112.859 357.275 113.321 357.051C113.797 356.813 114.35 356.694 114.98 356.694C115.946 356.694 116.681 357.009 117.185 357.639C117.703 358.255 117.997 359.004 118.067 359.886L116.555 360.453C116.499 360.033 116.415 359.669 116.303 359.361C116.191 359.039 116.037 358.794 115.841 358.626C115.645 358.444 115.386 358.353 115.064 358.353C114.7 358.353 114.406 358.479 114.182 358.731C113.972 358.969 113.867 359.256 113.867 359.592C113.867 359.802 113.909 360.012 113.993 360.222C114.091 360.418 114.252 360.614 114.476 360.81L116.618 362.784C116.912 363.05 117.185 363.337 117.437 363.645C117.703 363.953 117.92 364.303 118.088 364.695C118.256 365.087 118.34 365.542 118.34 366.06C118.34 366.746 118.2 367.32 117.92 367.782C117.64 368.244 117.248 368.594 116.744 368.832C116.24 369.056 115.652 369.168 114.98 369.168ZM123.045 369.168C122.051 369.168 121.253 368.86 120.651 368.244C120.049 367.614 119.706 366.788 119.622 365.766L121.491 365.199C121.603 365.969 121.792 366.55 122.058 366.942C122.324 367.32 122.716 367.509 123.234 367.509C123.64 367.509 123.948 367.397 124.158 367.173C124.368 366.935 124.473 366.62 124.473 366.228C124.473 365.878 124.396 365.563 124.242 365.283C124.088 365.003 123.836 364.716 123.486 364.422L121.407 362.637C120.987 362.273 120.63 361.867 120.336 361.419C120.056 360.971 119.916 360.39 119.916 359.676C119.916 359.032 120.042 358.493 120.294 358.059C120.56 357.611 120.924 357.275 121.386 357.051C121.862 356.813 122.415 356.694 123.045 356.694C124.011 356.694 124.746 357.009 125.25 357.639C125.768 358.255 126.062 359.004 126.132 359.886L124.62 360.453C124.564 360.033 124.48 359.669 124.368 359.361C124.256 359.039 124.102 358.794 123.906 358.626C123.71 358.444 123.451 358.353 123.129 358.353C122.765 358.353 122.471 358.479 122.247 358.731C122.037 358.969 121.932 359.256 121.932 359.592C121.932 359.802 121.974 360.012 122.058 360.222C122.156 360.418 122.317 360.614 122.541 360.81L124.683 362.784C124.977 363.05 125.25 363.337 125.502 363.645C125.768 363.953 125.985 364.303 126.153 364.695C126.321 365.087 126.405 365.542 126.405 366.06C126.405 366.746 126.265 367.32 125.985 367.782C125.705 368.244 125.313 368.594 124.809 368.832C124.305 369.056 123.717 369.168 123.045 369.168ZM128.442 369V356.862H130.689V369H128.442ZM128.442 355.056V352.704H130.689V355.056H128.442ZM136.622 369.168C135.628 369.168 134.872 368.972 134.354 368.58C133.85 368.174 133.507 367.607 133.325 366.879C133.157 366.151 133.073 365.304 133.073 364.338V361.545C133.073 360.523 133.164 359.655 133.346 358.941C133.528 358.213 133.871 357.66 134.375 357.282C134.893 356.89 135.642 356.694 136.622 356.694C137.504 356.694 138.183 356.841 138.659 357.135C139.149 357.415 139.485 357.842 139.667 358.416C139.849 358.976 139.94 359.676 139.94 360.516V361.23H137.903V360.495C137.903 359.963 137.868 359.543 137.798 359.235C137.728 358.927 137.602 358.703 137.42 358.563C137.238 358.423 136.979 358.353 136.643 358.353C136.279 358.353 135.999 358.437 135.803 358.605C135.607 358.773 135.474 359.06 135.404 359.466C135.348 359.858 135.32 360.397 135.32 361.083V364.905C135.32 365.941 135.418 366.634 135.614 366.984C135.81 367.334 136.16 367.509 136.664 367.509C137.042 367.509 137.315 367.425 137.483 367.257C137.665 367.075 137.777 366.823 137.819 366.501C137.875 366.179 137.903 365.815 137.903 365.409V364.422H139.94V365.262C139.94 366.074 139.842 366.774 139.646 367.362C139.464 367.95 139.128 368.398 138.638 368.706C138.162 369.014 137.49 369.168 136.622 369.168ZM144.332 369.168C143.856 369.168 143.436 369.035 143.072 368.769C142.708 368.489 142.421 368.139 142.211 367.719C142.001 367.285 141.896 366.83 141.896 366.354C141.896 365.598 142.022 364.961 142.274 364.443C142.526 363.925 142.869 363.491 143.303 363.141C143.751 362.777 144.262 362.462 144.836 362.196C145.424 361.93 146.04 361.671 146.684 361.419V360.558C146.684 360.068 146.656 359.662 146.6 359.34C146.544 359.018 146.425 358.78 146.243 358.626C146.075 358.458 145.816 358.374 145.466 358.374C145.158 358.374 144.906 358.444 144.71 358.584C144.528 358.724 144.395 358.927 144.311 359.193C144.227 359.445 144.185 359.746 144.185 360.096V360.705L141.959 360.621C141.987 359.277 142.295 358.29 142.883 357.66C143.471 357.016 144.381 356.694 145.613 356.694C146.817 356.694 147.671 357.023 148.175 357.681C148.679 358.339 148.931 359.291 148.931 360.537V366.081C148.931 366.459 148.938 366.823 148.952 367.173C148.98 367.523 149.008 367.852 149.036 368.16C149.078 368.454 149.113 368.734 149.141 369H147.083C147.041 368.776 146.985 368.496 146.915 368.16C146.859 367.81 146.817 367.495 146.789 367.215C146.649 367.691 146.376 368.139 145.97 368.559C145.578 368.965 145.032 369.168 144.332 369.168ZM145.214 367.236C145.438 367.236 145.648 367.173 145.844 367.047C146.04 366.921 146.215 366.781 146.369 366.627C146.523 366.459 146.628 366.326 146.684 366.228V362.784C146.334 362.98 146.005 363.176 145.697 363.372C145.389 363.568 145.116 363.778 144.878 364.002C144.654 364.212 144.472 364.457 144.332 364.737C144.206 365.003 144.143 365.311 144.143 365.661C144.143 366.151 144.234 366.536 144.416 366.816C144.598 367.096 144.864 367.236 145.214 367.236ZM150.585 357.198V351.99H152.622L151.803 357.198H150.585ZM156.989 369.168C155.995 369.168 155.197 368.86 154.595 368.244C153.993 367.614 153.65 366.788 153.566 365.766L155.435 365.199C155.547 365.969 155.736 366.55 156.002 366.942C156.268 367.32 156.66 367.509 157.178 367.509C157.584 367.509 157.892 367.397 158.102 367.173C158.312 366.935 158.417 366.62 158.417 366.228C158.417 365.878 158.34 365.563 158.186 365.283C158.032 365.003 157.78 364.716 157.43 364.422L155.351 362.637C154.931 362.273 154.574 361.867 154.28 361.419C154 360.971 153.86 360.39 153.86 359.676C153.86 359.032 153.986 358.493 154.238 358.059C154.504 357.611 154.868 357.275 155.33 357.051C155.806 356.813 156.359 356.694 156.989 356.694C157.955 356.694 158.69 357.009 159.194 357.639C159.712 358.255 160.006 359.004 160.076 359.886L158.564 360.453C158.508 360.033 158.424 359.669 158.312 359.361C158.2 359.039 158.046 358.794 157.85 358.626C157.654 358.444 157.395 358.353 157.073 358.353C156.709 358.353 156.415 358.479 156.191 358.731C155.981 358.969 155.876 359.256 155.876 359.592C155.876 359.802 155.918 360.012 156.002 360.222C156.1 360.418 156.261 360.614 156.485 360.81L158.627 362.784C158.921 363.05 159.194 363.337 159.446 363.645C159.712 363.953 159.929 364.303 160.097 364.695C160.265 365.087 160.349 365.542 160.349 366.06C160.349 366.746 160.209 367.32 159.929 367.782C159.649 368.244 159.257 368.594 158.753 368.832C158.249 369.056 157.661 369.168 156.989 369.168ZM170.609 369.168C169.657 369.168 168.922 368.986 168.404 368.622C167.886 368.244 167.522 367.698 167.312 366.984C167.116 366.256 167.018 365.367 167.018 364.317V361.545C167.018 360.467 167.123 359.571 167.333 358.857C167.543 358.143 167.907 357.604 168.425 357.24C168.957 356.876 169.685 356.694 170.609 356.694C171.631 356.694 172.38 356.904 172.856 357.324C173.346 357.744 173.668 358.353 173.822 359.151C173.976 359.935 174.053 360.88 174.053 361.986V362.973H169.265V365.409C169.265 365.899 169.307 366.298 169.391 366.606C169.489 366.914 169.636 367.145 169.832 367.299C170.042 367.439 170.308 367.509 170.63 367.509C170.966 367.509 171.218 367.432 171.386 367.278C171.568 367.11 171.687 366.879 171.743 366.585C171.813 366.277 171.848 365.92 171.848 365.514V364.779H174.032V365.241C174.032 366.459 173.773 367.418 173.255 368.118C172.737 368.818 171.855 369.168 170.609 369.168ZM169.265 361.755H171.848V360.663C171.848 360.159 171.82 359.739 171.764 359.403C171.708 359.053 171.589 358.794 171.407 358.626C171.239 358.444 170.966 358.353 170.588 358.353C170.224 358.353 169.944 358.437 169.748 358.605C169.566 358.773 169.44 359.06 169.37 359.466C169.3 359.858 169.265 360.404 169.265 361.104V361.755ZM175.353 369L178.083 362.616L175.416 356.862H177.558L179.343 360.705L180.918 356.862H183.123L180.351 362.889L183.165 369H181.023L179.112 364.884L177.474 369H175.353ZM184.67 372.99V356.862H186.917V357.828C187.183 357.52 187.505 357.254 187.883 357.03C188.261 356.806 188.709 356.694 189.227 356.694C189.857 356.694 190.354 356.862 190.718 357.198C191.096 357.52 191.376 357.933 191.558 358.437C191.74 358.927 191.859 359.431 191.915 359.949C191.971 360.453 191.999 360.887 191.999 361.251V364.191C191.999 365.045 191.915 365.857 191.747 366.627C191.579 367.383 191.271 367.999 190.823 368.475C190.389 368.937 189.773 369.168 188.975 369.168C188.541 369.168 188.156 369.063 187.82 368.853C187.484 368.629 187.183 368.377 186.917 368.097V372.99H184.67ZM188.534 367.404C188.926 367.404 189.206 367.264 189.374 366.984C189.542 366.69 189.647 366.298 189.689 365.808C189.731 365.318 189.752 364.779 189.752 364.191V361.251C189.752 360.747 189.724 360.285 189.668 359.865C189.612 359.431 189.493 359.088 189.311 358.836C189.129 358.584 188.842 358.458 188.45 358.458C188.156 358.458 187.876 358.521 187.61 358.647C187.344 358.773 187.113 358.92 186.917 359.088V366.858C187.127 367.012 187.365 367.145 187.631 367.257C187.897 367.355 188.198 367.404 188.534 367.404ZM197.612 369.168C196.66 369.168 195.925 368.986 195.407 368.622C194.889 368.244 194.525 367.698 194.315 366.984C194.119 366.256 194.021 365.367 194.021 364.317V361.545C194.021 360.467 194.126 359.571 194.336 358.857C194.546 358.143 194.91 357.604 195.428 357.24C195.96 356.876 196.688 356.694 197.612 356.694C198.634 356.694 199.383 356.904 199.859 357.324C200.349 357.744 200.671 358.353 200.825 359.151C200.979 359.935 201.056 360.88 201.056 361.986V362.973H196.268V365.409C196.268 365.899 196.31 366.298 196.394 366.606C196.492 366.914 196.639 367.145 196.835 367.299C197.045 367.439 197.311 367.509 197.633 367.509C197.969 367.509 198.221 367.432 198.389 367.278C198.571 367.11 198.69 366.879 198.746 366.585C198.816 366.277 198.851 365.92 198.851 365.514V364.779H201.035V365.241C201.035 366.459 200.776 367.418 200.258 368.118C199.74 368.818 198.858 369.168 197.612 369.168ZM196.268 361.755H198.851V360.663C198.851 360.159 198.823 359.739 198.767 359.403C198.711 359.053 198.592 358.794 198.41 358.626C198.242 358.444 197.969 358.353 197.591 358.353C197.227 358.353 196.947 358.437 196.751 358.605C196.569 358.773 196.443 359.06 196.373 359.466C196.303 359.858 196.268 360.404 196.268 361.104V361.755ZM203.364 369V356.862H205.611V358.584C206.059 357.842 206.507 357.345 206.955 357.093C207.403 356.841 207.851 356.715 208.299 356.715C208.355 356.715 208.404 356.715 208.446 356.715C208.502 356.715 208.572 356.722 208.656 356.736V359.214C208.488 359.144 208.292 359.088 208.068 359.046C207.858 358.99 207.641 358.962 207.417 358.962C207.067 358.962 206.745 359.046 206.451 359.214C206.171 359.368 205.891 359.676 205.611 360.138V369H203.364ZM213.492 369.168C212.862 369.168 212.351 369.049 211.959 368.811C211.581 368.573 211.301 368.237 211.119 367.803C210.951 367.369 210.867 366.858 210.867 366.27V358.353H209.586V356.862H210.867V353.313H213.114V356.862H215.067V358.353H213.114V366.123C213.114 366.599 213.191 366.942 213.345 367.152C213.499 367.348 213.793 367.446 214.227 367.446C214.339 367.446 214.465 367.439 214.605 367.425C214.759 367.411 214.906 367.397 215.046 367.383V369.042C214.766 369.084 214.507 369.112 214.269 369.126C214.031 369.154 213.772 369.168 213.492 369.168ZM225.086 372.759C224.358 372.759 223.7 372.682 223.112 372.528C222.524 372.374 222.062 372.129 221.726 371.793C221.39 371.457 221.222 371.016 221.222 370.47C221.222 370.078 221.306 369.735 221.474 369.441C221.642 369.147 221.859 368.895 222.125 368.685C222.391 368.461 222.671 368.279 222.965 368.139C222.573 368.027 222.279 367.852 222.083 367.614C221.887 367.362 221.789 367.103 221.789 366.837C221.789 366.389 221.908 366.004 222.146 365.682C222.384 365.36 222.713 365.01 223.133 364.632C222.671 364.282 222.321 363.834 222.083 363.288C221.845 362.742 221.726 361.986 221.726 361.02C221.726 360.068 221.852 359.277 222.104 358.647C222.37 358.003 222.755 357.52 223.259 357.198C223.777 356.862 224.407 356.694 225.149 356.694C225.807 356.694 226.332 356.806 226.724 357.03C227.13 357.254 227.438 357.59 227.648 358.038C227.718 357.926 227.907 357.737 228.215 357.471C228.523 357.191 228.88 356.96 229.286 356.778L229.622 356.631L230.189 358.08C230.007 358.108 229.762 358.178 229.454 358.29C229.16 358.388 228.88 358.493 228.614 358.605C228.362 358.703 228.201 358.787 228.131 358.857C228.229 359.095 228.313 359.438 228.383 359.886C228.467 360.334 228.509 360.733 228.509 361.083C228.509 361.909 228.404 362.637 228.194 363.267C227.984 363.897 227.634 364.394 227.144 364.758C226.668 365.108 226.003 365.283 225.149 365.283C224.967 365.283 224.771 365.269 224.561 365.241C224.351 365.213 224.162 365.178 223.994 365.136C223.91 365.262 223.819 365.409 223.721 365.577C223.637 365.745 223.595 365.906 223.595 366.06C223.595 366.214 223.672 366.34 223.826 366.438C223.994 366.522 224.253 366.578 224.603 366.606L226.493 366.774C227.445 366.858 228.152 367.145 228.614 367.635C229.076 368.125 229.307 368.825 229.307 369.735C229.307 370.393 229.153 370.946 228.845 371.394C228.537 371.856 228.068 372.199 227.438 372.423C226.822 372.647 226.038 372.759 225.086 372.759ZM225.254 370.995C226.052 370.995 226.64 370.897 227.018 370.701C227.396 370.519 227.585 370.218 227.585 369.798C227.585 369.546 227.536 369.336 227.438 369.168C227.354 369 227.193 368.867 226.955 368.769C226.717 368.671 226.374 368.601 225.926 368.559L224.015 368.391C223.861 368.545 223.714 368.699 223.574 368.853C223.434 369.007 223.322 369.168 223.238 369.336C223.154 369.518 223.112 369.707 223.112 369.903C223.112 370.267 223.266 370.54 223.574 370.722C223.882 370.904 224.442 370.995 225.254 370.995ZM225.149 363.708C225.471 363.708 225.723 363.652 225.905 363.54C226.101 363.414 226.248 363.239 226.346 363.015C226.444 362.777 226.507 362.49 226.535 362.154C226.577 361.818 226.598 361.44 226.598 361.02C226.598 360.6 226.577 360.222 226.535 359.886C226.507 359.536 226.444 359.242 226.346 359.004C226.262 358.752 226.122 358.563 225.926 358.437C225.744 358.311 225.492 358.248 225.17 358.248C224.862 358.248 224.603 358.311 224.393 358.437C224.197 358.563 224.05 358.745 223.952 358.983C223.854 359.207 223.784 359.494 223.742 359.844C223.7 360.18 223.679 360.572 223.679 361.02C223.679 361.398 223.693 361.755 223.721 362.091C223.763 362.413 223.833 362.693 223.931 362.931C224.043 363.169 224.197 363.358 224.393 363.498C224.589 363.638 224.841 363.708 225.149 363.708ZM233.015 369.168C232.539 369.168 232.168 369.042 231.902 368.79C231.636 368.538 231.447 368.223 231.335 367.845C231.237 367.467 231.188 367.082 231.188 366.69V356.862H233.435V366.018C233.435 366.452 233.498 366.795 233.624 367.047C233.75 367.285 234.009 367.404 234.401 367.404C234.653 367.404 234.912 367.334 235.178 367.194C235.458 367.04 235.724 366.858 235.976 366.648V356.862H238.223V369H235.976V367.803C235.584 368.181 235.136 368.503 234.632 368.769C234.142 369.035 233.603 369.168 233.015 369.168ZM240.878 369V356.862H243.125V369H240.878ZM240.878 355.056V352.704H243.125V355.056H240.878ZM248.554 369.168C247.532 369.168 246.769 368.797 246.265 368.055C245.761 367.299 245.509 366.025 245.509 364.233V361.881C245.509 360.957 245.586 360.103 245.74 359.319C245.894 358.521 246.181 357.884 246.601 357.408C247.035 356.932 247.665 356.694 248.491 356.694C248.897 356.694 249.268 356.785 249.604 356.967C249.94 357.149 250.241 357.373 250.507 357.639V351.99H252.754V369H250.507V368.223C250.241 368.503 249.947 368.734 249.625 368.916C249.317 369.084 248.96 369.168 248.554 369.168ZM249.121 367.404C249.331 367.404 249.555 367.369 249.793 367.299C250.031 367.215 250.269 367.096 250.507 366.942V358.983C250.311 358.843 250.094 358.724 249.856 358.626C249.618 358.514 249.359 358.458 249.079 358.458C248.561 358.458 248.211 358.71 248.029 359.214C247.847 359.704 247.756 360.299 247.756 360.999V364.422C247.756 364.982 247.784 365.493 247.84 365.955C247.91 366.403 248.043 366.76 248.239 367.026C248.435 367.278 248.729 367.404 249.121 367.404ZM257.424 369.168C256.948 369.168 256.528 369.035 256.164 368.769C255.8 368.489 255.513 368.139 255.303 367.719C255.093 367.285 254.988 366.83 254.988 366.354C254.988 365.598 255.114 364.961 255.366 364.443C255.618 363.925 255.961 363.491 256.395 363.141C256.843 362.777 257.354 362.462 257.928 362.196C258.516 361.93 259.132 361.671 259.776 361.419V360.558C259.776 360.068 259.748 359.662 259.692 359.34C259.636 359.018 259.517 358.78 259.335 358.626C259.167 358.458 258.908 358.374 258.558 358.374C258.25 358.374 257.998 358.444 257.802 358.584C257.62 358.724 257.487 358.927 257.403 359.193C257.319 359.445 257.277 359.746 257.277 360.096V360.705L255.051 360.621C255.079 359.277 255.387 358.29 255.975 357.66C256.563 357.016 257.473 356.694 258.705 356.694C259.909 356.694 260.763 357.023 261.267 357.681C261.771 358.339 262.023 359.291 262.023 360.537V366.081C262.023 366.459 262.03 366.823 262.044 367.173C262.072 367.523 262.1 367.852 262.128 368.16C262.17 368.454 262.205 368.734 262.233 369H260.175C260.133 368.776 260.077 368.496 260.007 368.16C259.951 367.81 259.909 367.495 259.881 367.215C259.741 367.691 259.468 368.139 259.062 368.559C258.67 368.965 258.124 369.168 257.424 369.168ZM258.306 367.236C258.53 367.236 258.74 367.173 258.936 367.047C259.132 366.921 259.307 366.781 259.461 366.627C259.615 366.459 259.72 366.326 259.776 366.228V362.784C259.426 362.98 259.097 363.176 258.789 363.372C258.481 363.568 258.208 363.778 257.97 364.002C257.746 364.212 257.564 364.457 257.424 364.737C257.298 365.003 257.235 365.311 257.235 365.661C257.235 366.151 257.326 366.536 257.508 366.816C257.69 367.096 257.956 367.236 258.306 367.236ZM264.392 369V356.862H266.639V358.059C267.045 357.681 267.493 357.359 267.983 357.093C268.473 356.827 269.012 356.694 269.6 356.694C270.09 356.694 270.461 356.82 270.713 357.072C270.979 357.324 271.161 357.639 271.259 358.017C271.371 358.395 271.427 358.78 271.427 359.172V369H269.18V359.823C269.18 359.389 269.117 359.053 268.991 358.815C268.865 358.577 268.606 358.458 268.214 358.458C267.962 358.458 267.696 358.535 267.416 358.689C267.15 358.829 266.891 359.004 266.639 359.214V369H264.392ZM277.148 369.168C276.154 369.168 275.398 368.972 274.88 368.58C274.376 368.174 274.033 367.607 273.851 366.879C273.683 366.151 273.599 365.304 273.599 364.338V361.545C273.599 360.523 273.69 359.655 273.872 358.941C274.054 358.213 274.397 357.66 274.901 357.282C275.419 356.89 276.168 356.694 277.148 356.694C278.03 356.694 278.709 356.841 279.185 357.135C279.675 357.415 280.011 357.842 280.193 358.416C280.375 358.976 280.466 359.676 280.466 360.516V361.23H278.429V360.495C278.429 359.963 278.394 359.543 278.324 359.235C278.254 358.927 278.128 358.703 277.946 358.563C277.764 358.423 277.505 358.353 277.169 358.353C276.805 358.353 276.525 358.437 276.329 358.605C276.133 358.773 276 359.06 275.93 359.466C275.874 359.858 275.846 360.397 275.846 361.083V364.905C275.846 365.941 275.944 366.634 276.14 366.984C276.336 367.334 276.686 367.509 277.19 367.509C277.568 367.509 277.841 367.425 278.009 367.257C278.191 367.075 278.303 366.823 278.345 366.501C278.401 366.179 278.429 365.815 278.429 365.409V364.422H280.466V365.262C280.466 366.074 280.368 366.774 280.172 367.362C279.99 367.95 279.654 368.398 279.164 368.706C278.688 369.014 278.016 369.168 277.148 369.168ZM286.034 369.168C285.082 369.168 284.347 368.986 283.829 368.622C283.311 368.244 282.947 367.698 282.737 366.984C282.541 366.256 282.443 365.367 282.443 364.317V361.545C282.443 360.467 282.548 359.571 282.758 358.857C282.968 358.143 283.332 357.604 283.85 357.24C284.382 356.876 285.11 356.694 286.034 356.694C287.056 356.694 287.805 356.904 288.281 357.324C288.771 357.744 289.093 358.353 289.247 359.151C289.401 359.935 289.478 360.88 289.478 361.986V362.973H284.69V365.409C284.69 365.899 284.732 366.298 284.816 366.606C284.914 366.914 285.061 367.145 285.257 367.299C285.467 367.439 285.733 367.509 286.055 367.509C286.391 367.509 286.643 367.432 286.811 367.278C286.993 367.11 287.112 366.879 287.168 366.585C287.238 366.277 287.273 365.92 287.273 365.514V364.779H289.457V365.241C289.457 366.459 289.198 367.418 288.68 368.118C288.162 368.818 287.28 369.168 286.034 369.168ZM284.69 361.755H287.273V360.663C287.273 360.159 287.245 359.739 287.189 359.403C287.133 359.053 287.014 358.794 286.832 358.626C286.664 358.444 286.391 358.353 286.013 358.353C285.649 358.353 285.369 358.437 285.173 358.605C284.991 358.773 284.865 359.06 284.795 359.466C284.725 359.858 284.69 360.404 284.69 361.104V361.755ZM291.618 369V366.501H293.865V369H291.618Z" fill="white"/>
</svg>
