<svg width="249" height="84" viewBox="0 0 249 84" fill="none" xmlns="http://www.w3.org/2000/svg">
<path d="M14.511 40.089V19.7534C14.511 18.577 13.2171 17.9889 10.6292 17.9889V16.7538C14.4522 14.754 17.8636 12.8719 20.8632 11.1074L21.569 12.519C21.4513 12.5778 21.2896 12.6955 21.0837 12.8719C20.8779 13.0189 20.6132 13.5042 20.2897 14.3276C19.9662 15.1216 19.8045 16.1068 19.8045 17.2831V40.3977C19.8045 42.6916 19.6721 44.8236 19.4075 46.794C19.1428 48.7937 18.8193 50.3229 18.437 51.3816C18.0547 52.4697 17.6577 53.0137 17.246 53.0137C16.5108 53.0137 15.555 52.7932 14.3787 52.3521C13.2318 51.9109 12.2613 51.4698 11.4673 51.0287L10.2763 50.367V49.0437H11.7761C12.8054 49.0437 13.5112 48.3673 13.8935 47.0145C14.3052 45.6618 14.511 43.3532 14.511 40.089ZM35.8933 19.9298C36.0403 19.9298 36.4079 20.1651 36.9961 20.6356C37.5842 21.0767 38.1724 21.709 38.7605 22.5324C39.3487 23.3264 39.6428 24.1057 39.6428 24.8703V32.2811C39.6428 32.8105 38.8635 33.4575 37.3048 34.2221C35.7462 34.9867 34.2317 35.6189 32.7613 36.1189C31.3203 36.5894 30.541 36.8247 30.4234 36.8247C30.4234 39.0891 31.4085 40.486 33.3789 41.0153C34.3493 41.2506 35.511 41.3682 36.8637 41.3682V42.6474C32.0408 44.2649 29.4676 45.0736 29.1441 45.0736C28.2619 45.0736 27.365 44.456 26.4533 43.2209C25.5417 41.9564 25.0858 40.486 25.0858 38.8097V23.9881C25.0858 23.7823 26.7621 23.0618 30.1146 21.8266C33.4671 20.5621 35.3933 19.9298 35.8933 19.9298ZM34.3493 26.9436C34.3493 26.1202 34.1582 25.4291 33.7759 24.8703C33.3936 24.2822 32.9084 23.9881 32.3202 23.9881C31.732 23.9881 31.0851 24.2087 30.3793 24.6498V34.8396C33.026 34.1044 34.3493 32.5164 34.3493 30.0756V26.9436ZM46.7362 35.4131C46.001 35.4131 45.3687 34.8543 44.8394 33.7368C44.31 32.6193 44.0453 31.2519 44.0453 29.6344V24.8703C44.0453 24.3116 45.5893 23.3558 48.6771 22.0031C51.7649 20.6209 53.5441 19.9298 54.0146 19.9298C54.2793 19.9298 54.5146 20.0916 54.7204 20.415C54.9263 20.7091 55.088 20.9591 55.2057 21.1649C55.3233 21.3414 55.4997 21.6649 55.735 22.1354C55.9997 22.5765 56.2202 22.9441 56.3967 23.2382C56.779 23.944 57.2642 24.2969 57.8524 24.2969V25.1791C57.3818 25.385 56.7643 25.6938 55.9997 26.1055C54.1176 27.1348 53.103 27.6494 52.956 27.6494C52.5148 27.6494 52.0296 26.9289 51.5003 25.4879C51.0003 24.0469 50.5445 23.3264 50.1328 23.3264C49.6034 23.3264 49.3388 23.7675 49.3388 24.6498V30.0756C49.3388 31.2519 49.6034 31.84 50.1328 31.84C50.2504 31.84 51.1621 31.4577 52.8677 30.6931C54.5734 29.9285 55.6027 29.5462 55.9556 29.5462C56.6614 29.5462 57.2789 30.1197 57.8083 31.2666C58.367 32.3841 58.6464 33.8251 58.6464 35.5895V40.5742C58.6464 41.1329 56.9554 42.1034 53.5735 43.4856C50.221 44.8383 48.2948 45.5147 47.7949 45.5147C47.589 45.5147 47.3831 45.3383 47.1773 44.9854C47.0008 44.6031 46.7362 44.0296 46.3833 43.265C46.0598 42.5004 45.7363 41.8534 45.4128 41.3241C45.0305 40.6183 44.5453 40.2654 43.9571 40.2654V39.3832C44.4277 39.1773 45.0599 38.8685 45.8539 38.4568C47.7066 37.4275 48.7065 36.9129 48.8535 36.9129C49.2947 36.9129 49.8387 37.7804 50.4857 39.5155C51.1621 41.2506 51.7061 42.1181 52.1178 42.1181C52.4119 42.1181 52.6913 42.0005 52.956 41.7652C53.2206 41.5299 53.353 41.2065 53.353 40.7947V35.2808C53.353 33.9574 52.9854 33.2957 52.2502 33.2957C52.0149 33.2957 51.0885 33.6486 49.4711 34.3544C47.8537 35.0602 46.942 35.4131 46.7362 35.4131ZM65.4958 35.4131C64.7606 35.4131 64.1283 34.8543 63.599 33.7368C63.0696 32.6193 62.805 31.2519 62.805 29.6344V24.8703C62.805 24.3116 64.3489 23.3558 67.4367 22.0031C70.5246 20.6209 72.3037 19.9298 72.7743 19.9298C73.0389 19.9298 73.2742 20.0916 73.4801 20.415C73.6859 20.7091 73.8476 20.9591 73.9653 21.1649C74.0829 21.3414 74.2594 21.6649 74.4946 22.1354C74.7593 22.5765 74.9799 22.9441 75.1563 23.2382C75.5386 23.944 76.0238 24.2969 76.612 24.2969V25.1791C76.1415 25.385 75.5239 25.6938 74.7593 26.1055C72.8772 27.1348 71.8626 27.6494 71.7156 27.6494C71.2745 27.6494 70.7892 26.9289 70.2599 25.4879C69.7599 24.0469 69.3041 23.3264 68.8924 23.3264C68.3631 23.3264 68.0984 23.7675 68.0984 24.6498V30.0756C68.0984 31.2519 68.3631 31.84 68.8924 31.84C69.01 31.84 69.9217 31.4577 71.6274 30.6931C73.333 29.9285 74.3623 29.5462 74.7152 29.5462C75.421 29.5462 76.0385 30.1197 76.5679 31.2666C77.1266 32.3841 77.406 33.8251 77.406 35.5895V40.5742C77.406 41.1329 75.7151 42.1034 72.3331 43.4856C68.9806 44.8383 67.0544 45.5147 66.5545 45.5147C66.3486 45.5147 66.1428 45.3383 65.9369 44.9854C65.7605 44.6031 65.4958 44.0296 65.1429 43.265C64.8194 42.5004 64.4959 41.8534 64.1724 41.3241C63.7901 40.6183 63.3049 40.2654 62.7167 40.2654V39.3832C63.1873 39.1773 63.8195 38.8685 64.6136 38.4568C66.4663 37.4275 67.4661 36.9129 67.6132 36.9129C68.0543 36.9129 68.5983 37.7804 69.2453 39.5155C69.9217 41.2506 70.4657 42.1181 70.8774 42.1181C71.1715 42.1181 71.4509 42.0005 71.7156 41.7652C71.9802 41.5299 72.1126 41.2065 72.1126 40.7947V35.2808C72.1126 33.9574 71.745 33.2957 71.0098 33.2957C70.7745 33.2957 69.8482 33.6486 68.2307 34.3544C66.6133 35.0602 65.7017 35.4131 65.4958 35.4131ZM87.5197 22.9294V38.545C87.5197 40.3389 88.1226 41.3535 89.3283 41.5888V42.5592L84.873 45.0736C84.226 44.8089 83.6231 44.3825 83.0644 43.7944C82.5056 43.1768 82.2263 42.6033 82.2263 42.074V26.4584C82.2263 24.6645 81.6234 23.6499 80.4177 23.4147V22.4442L84.873 19.9298C85.52 20.1945 86.1228 20.6356 86.6816 21.2532C87.2403 21.8413 87.5197 22.4001 87.5197 22.9294ZM81.5646 14.4158V11.725C81.5646 11.6368 82.1675 11.3721 83.3732 10.931C84.6083 10.4605 85.3141 10.2252 85.4906 10.2252C85.6964 10.2252 85.9758 10.4752 86.3287 10.9751C86.711 11.475 86.9021 11.9897 86.9021 12.519V15.7392C86.9021 15.8274 86.314 16.1068 85.1377 16.5773C83.9613 17.0184 83.2408 17.239 82.9762 17.239C82.7115 17.239 82.4027 16.989 82.0498 16.4891C81.7263 15.9597 81.5646 15.2687 81.5646 14.4158ZM98.8885 24.2087C98.5944 24.2087 98.3298 24.3557 98.0945 24.6498V36.8247C98.0945 39.0891 99.065 40.486 101.006 41.0153C102.006 41.2506 103.197 41.3682 104.579 41.3682V42.6474C99.756 44.2649 97.1829 45.0736 96.8594 45.0736C95.9771 45.0736 95.0802 44.456 94.1685 43.2209C93.2569 41.9564 92.8011 40.486 92.8011 38.8097V23.9881C92.8011 23.7823 94.4773 23.0618 97.8298 21.8266C101.212 20.5621 103.153 19.9298 103.653 19.9298C103.829 19.9298 104.035 20.3562 104.27 21.2091C104.505 22.0619 104.77 23.0912 105.064 24.2969C105.388 25.5026 105.711 26.3996 106.035 26.9877C106.388 27.5465 107.035 27.8258 107.976 27.8258V28.7081C107.329 29.0022 106.226 29.5315 104.667 30.2961C103.138 31.0313 102.315 31.3989 102.197 31.3989C101.756 31.3989 101.197 30.2079 100.521 27.8258C99.8443 25.4144 99.3002 24.2087 98.8885 24.2087ZM125.192 25.7526V38.2363C125.192 39.3243 125.369 40.089 125.722 40.5301C126.075 40.9418 126.619 41.2359 127.354 41.4123V42.3828L122.546 45.0736C121.899 44.8089 121.296 44.3825 120.737 43.7944C120.178 43.1768 119.899 42.618 119.899 42.1181L114.385 45.0736C114.297 45.0148 114.164 44.9413 113.988 44.853C113.811 44.7354 113.503 44.5148 113.062 44.1914C112.65 43.8385 112.282 43.4709 111.959 43.0886C111.076 42.1181 110.635 41.0153 110.635 39.7802V32.5458C110.635 32.0753 111.4 31.4724 112.929 30.7372C114.458 30.002 115.988 29.3992 117.517 28.9286L119.855 28.1787C119.855 26.5025 119.414 25.3409 118.531 24.6939C117.649 24.0175 115.944 23.6793 113.414 23.6793V22.356C117.973 20.7385 120.531 19.9298 121.09 19.9298C122.06 19.9298 122.987 20.5621 123.869 21.8266C124.751 23.0912 125.192 24.3998 125.192 25.7526ZM115.929 38.1921C115.929 38.9567 116.149 39.589 116.59 40.089C117.061 40.5595 117.576 40.7947 118.134 40.7947C118.693 40.7947 119.281 40.5742 119.899 40.1331V30.1638C119.164 30.4284 118.605 30.649 118.223 30.8255C117.87 31.0019 117.487 31.2813 117.076 31.6636C116.311 32.3694 115.929 33.5898 115.929 35.3249V38.1921ZM142.951 40.5742V17.1949L144.319 15.8715H141.54C139.746 15.8715 138.731 16.3567 138.496 17.3272H137.525L135.011 13.71C135.364 13.1513 135.82 12.6513 136.378 12.2102C136.937 11.7691 137.481 11.5485 138.011 11.5485H149.656C151.45 11.5485 152.465 11.0633 152.7 10.0929H153.67L156.185 13.71C155.832 14.2688 155.376 14.7687 154.817 15.2098C154.258 15.651 153.714 15.8715 153.185 15.8715H148.245V38.2804C148.245 39.3685 148.362 40.1478 148.597 40.6183C148.833 41.0888 149.318 41.3241 150.053 41.3241V42.6916L141.01 46.4852L140.304 45.0736C140.951 45.0736 141.569 44.6913 142.157 43.9267C142.686 43.1915 142.951 42.074 142.951 40.5742ZM170.443 25.7526V38.2363C170.443 39.3243 170.62 40.089 170.973 40.5301C171.325 40.9418 171.869 41.2359 172.605 41.4123V42.3828L167.796 45.0736C167.15 44.8089 166.547 44.3825 165.988 43.7944C165.429 43.1768 165.15 42.618 165.15 42.1181L159.636 45.0736C159.548 45.0148 159.415 44.9413 159.239 44.853C159.062 44.7354 158.754 44.5148 158.312 44.1914C157.901 43.8385 157.533 43.4709 157.21 43.0886C156.327 42.1181 155.886 41.0153 155.886 39.7802V32.5458C155.886 32.0753 156.651 31.4724 158.18 30.7372C159.709 30.002 161.239 29.3992 162.768 28.9286L165.106 28.1787C165.106 26.5025 164.665 25.3409 163.782 24.6939C162.9 24.0175 161.194 23.6793 158.665 23.6793V22.356C163.224 20.7385 165.782 19.9298 166.341 19.9298C167.311 19.9298 168.238 20.5621 169.12 21.8266C170.002 23.0912 170.443 24.3998 170.443 25.7526ZM161.18 38.1921C161.18 38.9567 161.4 39.589 161.841 40.089C162.312 40.5595 162.827 40.7947 163.385 40.7947C163.944 40.7947 164.532 40.5742 165.15 40.1331V30.1638C164.415 30.4284 163.856 30.649 163.474 30.8255C163.121 31.0019 162.738 31.2813 162.327 31.6636C161.562 32.3694 161.18 33.5898 161.18 35.3249V38.1921ZM190.345 22.8853V40.3977C190.345 41.5152 189.845 43.1033 188.845 45.1618C187.845 47.2498 186.786 49.0731 185.669 50.6317C184.551 52.2197 183.787 53.0137 183.375 53.0137C182.64 53.0137 181.655 52.7932 180.419 52.3521C179.184 51.9109 178.126 51.4698 177.243 51.0287L175.964 50.367V49.0437H177.464C178.611 49.0437 179.919 48.382 181.39 47.0586C182.86 45.7647 184.081 44.0296 185.051 41.8534C181.728 43.4121 179.817 44.1914 179.317 44.1914C178.405 44.1914 177.582 43.6179 176.846 42.471C176.141 41.2947 175.788 39.986 175.788 38.545V26.4143C175.788 24.7968 175.067 23.8411 173.626 23.547V22.5765L178.434 19.8857C179.081 20.1504 179.684 20.5915 180.243 21.2091C180.802 21.7972 181.081 22.356 181.081 22.8853V34.8396C181.081 36.8982 181.405 38.2804 182.052 38.9862C182.698 39.6625 183.698 40.0007 185.051 40.0007V26.4143C185.051 24.6204 184.448 23.6058 183.243 23.3705V22.4001L187.698 19.8857C188.345 20.1504 188.948 20.5915 189.506 21.2091C190.065 21.7972 190.345 22.356 190.345 22.8853ZM200.917 14.1512V38.545C200.917 40.3389 201.519 41.3535 202.725 41.5888V42.5592L198.27 45.0736C197.623 44.8089 197.02 44.3825 196.461 43.7944C195.903 43.1768 195.623 42.6033 195.623 42.074V17.6801C195.623 15.8862 195.02 14.8716 193.815 14.6364V13.6659L198.27 11.1515C198.917 11.4162 199.52 11.8573 200.078 12.4749C200.637 13.0631 200.917 13.6218 200.917 14.1512ZM206.198 38.6333V23.9881C206.198 23.7823 207.874 23.0618 211.227 21.8266C214.579 20.5621 216.505 19.9298 217.005 19.9298C217.505 19.9298 218.255 20.5327 219.255 21.7384C220.284 22.9441 220.799 24.0322 220.799 25.0027V40.9712C220.799 41.2065 219.182 41.9564 215.947 43.2209C212.741 44.456 210.771 45.0736 210.036 45.0736C209.33 45.0736 208.506 44.4413 207.565 43.1768C206.654 41.9122 206.198 40.3977 206.198 38.6333ZM213.741 41.0153C214.3 41.0153 214.873 40.78 215.461 40.3095V27.2965C215.461 25.1203 214.712 24.0322 213.212 24.0322C212.624 24.0322 212.05 24.2528 211.491 24.6939V37.751C211.491 39.9272 212.241 41.0153 213.741 41.0153ZM223.916 22.5765L228.768 19.9298C228.974 19.9886 229.21 20.0769 229.474 20.1945C229.768 20.2827 230.151 20.5621 230.621 21.0326C231.121 21.5031 231.371 22.0325 231.371 22.6206C231.518 22.5618 232.209 22.106 233.444 21.2532C234.709 20.3709 235.518 19.9298 235.87 19.9298C236.812 19.9298 237.694 20.5474 238.517 21.7825C239.341 23.0176 239.752 24.1499 239.752 25.1791V27.3406L235.209 29.8991L234.459 29.2815C234.459 26.8113 234.224 25.3997 233.753 25.0468C233.224 24.6645 232.43 24.4733 231.371 24.4733V38.545C231.371 40.3389 231.974 41.3535 233.18 41.5888V42.5592L228.724 45.0736C228.077 44.8089 227.474 44.3825 226.916 43.7944C226.357 43.1768 226.078 42.6033 226.078 42.074V27.4288C226.078 26.1349 225.842 25.1644 225.372 24.5175C224.931 23.8705 224.445 23.547 223.916 23.547V22.5765Z" fill="white"/>
<path d="M74.503 80.4297V70.0298H77.5588C78.1836 70.0298 78.6886 70.1453 79.0738 70.3764C79.4675 70.6075 79.7543 70.9457 79.934 71.3908C80.1224 71.8273 80.2165 72.358 80.2165 72.9828C80.2165 73.659 80.101 74.2069 79.8698 74.6263C79.6387 75.0371 79.3135 75.3367 78.894 75.525C78.4832 75.7134 77.9953 75.8075 77.4304 75.8075H76.4032V80.4297H74.503ZM76.4032 74.4722H77.1222C77.4646 74.4722 77.7299 74.4251 77.9183 74.331C78.1151 74.2283 78.2478 74.0699 78.3163 73.8559C78.3933 73.6334 78.4318 73.3381 78.4318 72.97C78.4318 72.5934 78.4019 72.2895 78.342 72.0584C78.2906 71.8187 78.1708 71.6433 77.9825 71.532C77.8027 71.4207 77.516 71.3651 77.1222 71.3651H76.4032V74.4722ZM81.5305 80.4297V70.0298H85.8959V71.3651H83.4308V74.3567H85.3695V75.6791H83.4308V79.1201H85.9216V80.4297H81.5305ZM87.2792 80.4297V70.0298H89.77C90.4719 70.0298 91.0625 70.1154 91.5419 70.2866C92.0298 70.4492 92.3978 70.7317 92.6461 71.134C92.9029 71.5363 93.0312 72.0841 93.0312 72.7774C93.0312 73.1968 92.9927 73.5735 92.9157 73.9073C92.8387 74.2411 92.706 74.5279 92.5177 74.7675C92.3379 74.9986 92.0854 75.1784 91.7601 75.3068L93.211 80.4297H91.3108L90.0525 75.6663H89.1794V80.4297H87.2792ZM89.1794 74.4722H89.77C90.1381 74.4722 90.4291 74.4209 90.6431 74.3181C90.8657 74.2069 91.024 74.0357 91.1182 73.8046C91.2123 73.5649 91.2594 73.261 91.2594 72.893C91.2594 72.3708 91.161 71.9814 90.9641 71.7246C90.7758 71.4592 90.412 71.3266 89.8728 71.3266H89.1794V74.4722ZM97.3272 80.5709C96.7024 80.5709 96.1803 80.4511 95.7608 80.2114C95.3414 79.9632 95.0247 79.6037 94.8107 79.1329C94.5967 78.6621 94.4769 78.0844 94.4512 77.3996L96.0818 77.0786C96.0989 77.4809 96.146 77.8361 96.223 78.1443C96.3086 78.4524 96.4328 78.6921 96.5954 78.8633C96.7666 79.0259 96.9891 79.1072 97.263 79.1072C97.5712 79.1072 97.7895 79.0174 97.9179 78.8376C98.0462 78.6493 98.1104 78.4139 98.1104 78.1314C98.1104 77.6778 98.0077 77.3054 97.8023 77.0144C97.5969 76.7234 97.323 76.4324 96.9806 76.1413L95.671 74.9858C95.3029 74.6691 95.0076 74.3181 94.785 73.933C94.571 73.5392 94.464 73.0556 94.464 72.4821C94.464 71.6604 94.7037 71.027 95.1831 70.5819C95.6624 70.1368 96.3172 69.9142 97.1475 69.9142C97.6354 69.9142 98.042 69.9913 98.3672 70.1453C98.6925 70.2908 98.9493 70.4963 99.1376 70.7616C99.3345 71.027 99.48 71.3308 99.5741 71.6732C99.6683 72.007 99.7282 72.3623 99.7539 72.7389L98.1361 73.0214C98.119 72.6961 98.0805 72.4051 98.0206 72.1483C97.9692 71.8915 97.8708 71.6903 97.7253 71.5448C97.5883 71.3993 97.3829 71.3266 97.109 71.3266C96.8265 71.3266 96.6082 71.4207 96.4542 71.609C96.3086 71.7888 96.2359 72.0156 96.2359 72.2895C96.2359 72.6405 96.3086 72.9315 96.4542 73.1626C96.5997 73.3851 96.8094 73.6163 97.0833 73.8559L98.3801 74.9986C98.8081 75.3581 99.1718 75.7818 99.4714 76.2697C99.7796 76.7491 99.9336 77.3311 99.9336 78.0159C99.9336 78.5123 99.8224 78.9532 99.5998 79.3384C99.3858 79.7235 99.082 80.0274 98.6882 80.25C98.303 80.4639 97.8494 80.5709 97.3272 80.5709ZM104.134 80.5709C103.398 80.5709 102.811 80.434 102.375 80.1601C101.938 79.8862 101.626 79.4924 101.438 78.9788C101.249 78.4653 101.155 77.8575 101.155 77.1557V73.2653C101.155 72.5634 101.249 71.9642 101.438 71.4678C101.626 70.9628 101.938 70.5776 102.375 70.3122C102.811 70.0469 103.398 69.9142 104.134 69.9142C104.887 69.9142 105.478 70.0469 105.906 70.3122C106.342 70.5776 106.655 70.9628 106.843 71.4678C107.04 71.9642 107.138 72.5634 107.138 73.2653V77.1685C107.138 77.8618 107.04 78.4653 106.843 78.9788C106.655 79.4839 106.342 79.8776 105.906 80.1601C105.478 80.434 104.887 80.5709 104.134 80.5709ZM104.134 79.1714C104.451 79.1714 104.682 79.103 104.827 78.966C104.981 78.8291 105.084 78.6407 105.135 78.4011C105.187 78.1614 105.212 77.9003 105.212 77.6179V72.8288C105.212 72.5377 105.187 72.2767 105.135 72.0456C105.084 71.8145 104.981 71.6347 104.827 71.5063C104.682 71.3694 104.451 71.3009 104.134 71.3009C103.834 71.3009 103.608 71.3694 103.453 71.5063C103.299 71.6347 103.197 71.8145 103.145 72.0456C103.094 72.2767 103.068 72.5377 103.068 72.8288V77.6179C103.068 77.9003 103.09 78.1614 103.132 78.4011C103.184 78.6407 103.287 78.8291 103.441 78.966C103.595 79.103 103.826 79.1714 104.134 79.1714ZM108.801 80.4297V70.0298H110.123L112.653 75.9616V70.0298H114.219V80.4297H112.961L110.419 74.2154V80.4297H108.801ZM115.528 80.4297L117.608 70.0298H119.636L121.716 80.4297H119.957L119.546 78.0287H117.736L117.312 80.4297H115.528ZM117.929 76.8218H119.341L118.635 72.4564L117.929 76.8218ZM123.019 80.4297V70.0298H124.919V79.1201H127.436V80.4297H123.019ZM133.099 80.4297V71.4293H131.442V70.0298H136.629V71.4293H134.999V80.4297H133.099ZM137.832 80.4297V70.0298H140.323C141.025 70.0298 141.616 70.1154 142.095 70.2866C142.583 70.4492 142.951 70.7317 143.199 71.134C143.456 71.5363 143.584 72.0841 143.584 72.7774C143.584 73.1968 143.546 73.5735 143.469 73.9073C143.392 74.2411 143.259 74.5279 143.071 74.7675C142.891 74.9986 142.639 75.1784 142.313 75.3068L143.764 80.4297H141.864L140.606 75.6663H139.733V80.4297H137.832ZM139.733 74.4722H140.323C140.691 74.4722 140.982 74.4209 141.196 74.3181C141.419 74.2069 141.577 74.0357 141.671 73.8046C141.766 73.5649 141.813 73.261 141.813 72.893C141.813 72.3708 141.714 71.9814 141.517 71.7246C141.329 71.4592 140.965 71.3266 140.426 71.3266H139.733V74.4722ZM144.76 80.4297L146.84 70.0298H148.868L150.948 80.4297H149.189L148.779 78.0287H146.968L146.545 80.4297H144.76ZM147.161 76.8218H148.573L147.867 72.4564L147.161 76.8218ZM152.303 80.4297V70.0298H154.177V80.4297H152.303ZM156.044 80.4297V70.0298H157.366L159.896 75.9616V70.0298H161.462V80.4297H160.204L157.662 74.2154V80.4297H156.044ZM163.297 80.4297V70.0298H167.662V71.3651H165.197V74.3567H167.136V75.6791H165.197V79.1201H167.688V80.4297H163.297ZM169.046 80.4297V70.0298H171.537C172.238 70.0298 172.829 70.1154 173.308 70.2866C173.796 70.4492 174.164 70.7317 174.413 71.134C174.669 71.5363 174.798 72.0841 174.798 72.7774C174.798 73.1968 174.759 73.5735 174.682 73.9073C174.605 74.2411 174.473 74.5279 174.284 74.7675C174.104 74.9986 173.852 75.1784 173.527 75.3068L174.978 80.4297H173.077L171.819 75.6663H170.946V80.4297H169.046ZM170.946 74.4722H171.537C171.905 74.4722 172.196 74.4209 172.41 74.3181C172.632 74.2069 172.791 74.0357 172.885 73.8046C172.979 73.5649 173.026 73.261 173.026 72.893C173.026 72.3708 172.927 71.9814 172.731 71.7246C172.542 71.4592 172.179 71.3266 171.639 71.3266H170.946V74.4722Z" fill="white"/>
<path fill-rule="evenodd" clip-rule="evenodd" d="M243.142 2.13597L3.69781 2.13598C3.16811 2.13598 2.60898 2.41555 2.02042 2.97468C1.40244 3.53381 0.961018 4.13708 0.696167 4.78449L2.02029 6.87592H2.99141C3.22683 5.66938 4.2421 5.06611 6.0372 5.06611L245.482 5.0661C246.011 5.0661 246.585 4.78654 247.203 4.22741C247.792 3.66828 248.218 3.06501 248.483 2.4176L247.159 0.326157L246.188 0.326157C245.952 1.5327 244.937 2.13597 243.142 2.13597ZM243.142 59.6371L3.69781 59.6371C3.16811 59.6371 2.60898 59.9167 2.02042 60.4758C1.40244 61.035 0.961018 61.6382 0.696167 62.2856L2.02029 64.3771H2.99141C3.22683 63.1705 4.2421 62.5673 6.0372 62.5673L245.482 62.5672C246.011 62.5672 246.585 62.2877 247.203 61.7286C247.792 61.1694 248.218 60.5662 248.483 59.9187L247.159 57.8273H246.188C245.952 59.0338 244.937 59.6371 243.142 59.6371Z" fill="white"/>
</svg>
