<svg width="20" height="17" viewBox="0 0 20 17" fill="none" xmlns="http://www.w3.org/2000/svg">
<path d="M0.319641 14.5137C2.40368 14.631 4.22609 14.1438 6.00339 12.8537C4.20805 12.5469 2.96304 11.7259 2.2864 10.0298C2.80967 9.95766 3.26978 10.093 3.81109 9.87647C2.04282 9.10059 0.89704 7.93677 0.851931 5.92491C1.41128 5.97001 1.83531 6.33991 2.50293 6.28578C0.879001 4.69794 0.382794 2.96575 1.40226 0.863662C3.09836 2.81238 5.08317 4.13858 7.51004 4.76109C7.64537 4.79718 7.77167 4.83327 7.90699 4.86033C8.5295 5.00468 9.26929 5.31142 9.64821 5.26631C10.2978 5.18512 9.64822 4.4363 9.81061 3.46195C10.3249 0.430614 13.6629 -0.949725 16.1349 0.827575C16.8567 1.35084 17.425 1.34182 18.1377 1.02605C18.5076 0.863662 18.8866 0.701269 19.3286 0.511811C19.2294 1.37791 18.5618 1.85606 18.0295 2.49661C18.634 2.63194 19.1211 2.46053 19.6805 2.28009C19.491 2.90259 19.0219 3.25445 18.5979 3.59728C18.1558 3.94913 17.9844 4.31902 17.9663 4.89642C17.6957 13.6386 7.76265 20.3959 0.969219 15.0189C0.310626 14.4956 0.951169 15.0189 0.319641 14.5137Z" fill="white"/>
</svg>
